<?xml version="1.0" encoding="UTF-8" standalone="no"?>
<!-- Created with Inkscape (http://www.inkscape.org/) -->
<svg
   xmlns:svg="http://www.w3.org/2000/svg"
   xmlns="http://www.w3.org/2000/svg"
   version="1.0"
   width="524.40942"
   height="372.04724"
   id="svg2">
  <defs
     id="defs4">
    <marker
       refX="0"
       refY="0"
       orient="auto"
       style="overflow:visible"
       id="Arrow2Mend">
      <path
         d="M 8.7185878,4.0337352 L -2.2072895,0.016013256 L 8.7185884,-4.0017078 C 6.97309,-1.6296469 6.9831476,1.6157441 8.7185878,4.0337352 z "
         transform="scale(-0.6,-0.6)"
         style="font-size:12px;fill-rule:evenodd;stroke-width:0.625;stroke-linejoin:round"
         id="path3297" />
    </marker>
    <marker
       refX="0"
       refY="0"
       orient="auto"
       style="overflow:visible"
       id="TriangleInM">
      <path
         d="M 5.77,0 L -2.88,5 L -2.88,-5 L 5.77,0 z "
         transform="scale(-0.4,-0.4)"
         style="fill-rule:evenodd;stroke:#000000;stroke-width:1pt;marker-start:none"
         id="path3232" />
    </marker>
    <marker
       refX="0"
       refY="0"
       orient="auto"
       style="overflow:visible"
       id="TriangleOutM">
      <path
         d="M 5.77,0 L -2.88,5 L -2.88,-5 L 5.77,0 z "
         transform="scale(0.4,0.4)"
         style="fill-rule:evenodd;stroke:#000000;stroke-width:1pt;marker-start:none"
         id="path3223" />
    </marker>
    <marker
       refX="0"
       refY="0"
       orient="auto"
       style="overflow:visible"
       id="TriangleOutL">
      <path
         d="M 5.77,0 L -2.88,5 L -2.88,-5 L 5.77,0 z "
         transform="scale(0.8,0.8)"
         style="fill-rule:evenodd;stroke:#000000;stroke-width:1pt;marker-start:none"
         id="path3226" />
    </marker>
    <marker
       refX="0"
       refY="0"
       orient="auto"
       style="overflow:visible"
       id="TriangleInL">
      <path
         d="M 5.77,0 L -2.88,5 L -2.88,-5 L 5.77,0 z "
         transform="scale(-0.8,-0.8)"
         style="fill-rule:evenodd;stroke:#000000;stroke-width:1pt;marker-start:none"
         id="path3235" />
    </marker>
    <marker
       refX="0"
       refY="0"
       orient="auto"
       style="overflow:visible"
       id="Arrow2MendI">
      <path
         d="M 8.7185878,4.0337352 L -2.2072895,0.016013256 L 8.7185884,-4.0017078 C 6.97309,-1.6296469 6.9831476,1.6157441 8.7185878,4.0337352 z "
         transform="scale(-0.6,-0.6)"
         style="font-size:12px;fill:#ff0000;fill-rule:evenodd;stroke:#ff0000;stroke-width:0.625;stroke-linejoin:round"
         id="path5681" />
    </marker>
    <marker
       refX="0"
       refY="0"
       orient="auto"
       style="overflow:visible"
       id="Arrow2Mendh">
      <path
         d="M 8.7185878,4.0337352 L -2.2072895,0.016013256 L 8.7185884,-4.0017078 C 6.97309,-1.6296469 6.9831476,1.6157441 8.7185878,4.0337352 z "
         transform="scale(-0.6,-0.6)"
         style="font-size:12px;fill:#0000ff;fill-rule:evenodd;stroke:#0000ff;stroke-width:0.625;stroke-linejoin:round"
         id="path6888" />
    </marker>
  </defs>
  <g
     id="layer1">
    <g
       id="g2270">
      <path
         d="M 34.9375,18.125 C 34.9375,112.61319 34.9375,242.13681 34.9375,336.625 L 34.9375,337.125 L 35.4375,337.125 C 177.16978,337.125 318.89272,337.125 460.625,337.125 L 460.625,336.125 C 319.05939,336.125 177.50311,336.125 35.9375,336.125 C 35.9375,241.67557 35.9375,112.46486 35.9375,18.125 L 34.9375,18.125 z "
         style="fill:#000000;fill-opacity:1;fill-rule:evenodd;stroke:none;stroke-width:1px;stroke-linecap:butt;stroke-linejoin:miter;stroke-opacity:1"
         id="path2160" />
      <path
         d="M 35.433071,13.52354 L 39.433071,20.44354 L 31.433071,20.44354 L 35.433071,13.52354 z "
         style="fill-rule:evenodd;stroke:#000000;stroke-width:0.8pt;marker-start:none"
         id="path2276" />
      <path
         d="M 465.24592,336.61417 L 458.32592,340.61417 L 458.32592,332.61417 L 465.24592,336.61417 z "
         style="fill-rule:evenodd;stroke:#000000;stroke-width:0.8pt;marker-start:none"
         id="path2278" />
    </g>
    <g
       transform="translate(-548.59257,-117.07792)"
       style="fill:#ff0000;fill-opacity:1"
       id="g4420">
      <g
         transform="matrix(0.5314961,0,0,-0.5314961,-93.01181,393.30707)"
         style="font-style:normal;font-variant:normal;font-weight:normal;font-stretch:normal;letter-spacing:normal;word-spacing:normal;text-anchor:start;fill:#ff0000;fill-opacity:1;stroke:#000000;stroke-linecap:butt;stroke-linejoin:miter;stroke-miterlimit:10.43299961;stroke-dasharray:none;stroke-dashoffset:0;stroke-opacity:1"
         id="g4422"
         xml:space="preserve"><path
           d="M 1235.3,376.24 L 1235.3,376.37 L 1235.3,376.49 L 1235.4,376.6 L 1235.4,376.71 L 1235.4,376.82 L 1235.5,376.91 L 1235.5,377.01 L 1235.5,377.09 L 1235.5,377.18 L 1235.6,377.25 L 1235.6,377.33 L 1235.6,377.39 L 1235.7,377.46 L 1235.7,377.52 L 1235.7,377.57 L 1235.7,377.63 L 1235.8,377.67 L 1235.8,377.72 L 1235.8,377.76 L 1235.9,377.8 L 1235.9,377.83 L 1236,377.87 L 1236,377.9 L 1236,377.92 L 1236.1,377.95 L 1236.1,377.97 L 1236.2,377.99 L 1236.2,378.01 L 1236.3,378.03 L 1236.3,378.05 L 1236.4,378.06 L 1236.4,378.08 C 1236.9,378.18 1238.5,378.18 1239.6,378.18 C 1244.6,378.18 1246.8,377.98 1246.8,374.09 C 1246.8,373.35 1246.6,371.41 1246.4,370.11 C 1246.4,369.91 1246.3,369.31 1246.3,369.16 C 1246.3,368.86 1246.4,368.52 1246.9,368.52 C 1247.4,368.52 1247.5,368.91 1247.6,369.66 L 1249,378.33 C 1249,378.53 1249.1,379.03 1249.1,379.18 C 1249.1,379.72 1248.6,379.72 1247.7,379.72 L 1220.1,379.72 C 1218.9,379.72 1218.8,379.67 1218.5,378.73 L 1215.5,369.96 C 1215.4,369.86 1215.2,369.16 1215.2,369.06 C 1215.2,368.77 1215.4,368.52 1215.8,368.52 C 1216.3,368.52 1216.3,368.77 1216.6,369.56 C 1219.3,377.28 1220.6,378.18 1228,378.18 L 1229.9,378.18 C 1231.3,378.18 1231.3,377.98 1231.3,377.58 C 1231.3,377.28 1231.2,376.68 1231.1,376.54 L 1224.5,349.93 C 1224,348.09 1223.9,347.54 1218.5,347.54 C 1216.7,347.54 1216.4,347.54 1216.4,346.6 C 1216.4,346 1217,346 1217.3,346 C 1218.6,346 1220,346.1 1221.4,346.1 C 1222.8,346.1 1224.2,346.15 1225.6,346.15 C 1227,346.15 1228.4,346.1 1229.7,346.1 C 1231.2,346.1 1232.7,346 1234.1,346 C 1234.6,346 1235.2,346 1235.2,347 C 1235.2,347.54 1234.8,347.54 1233.5,347.54 C 1232.2,347.54 1231.6,347.54 1230.3,347.64 C 1228.8,347.79 1228.4,347.94 1228.4,348.74 C 1228.4,348.79 1228.4,349.04 1228.6,349.79 L 1235.3,376.24 z "
           style="fill:#ff0000;fill-opacity:1;stroke-width:0"
           id="path4424" /><path
           d="M 1255.7,361.18 L 1255.7,361.22 L 1255.7,361.26 L 1255.7,361.3 L 1255.7,361.34 L 1255.7,361.38 L 1255.7,361.42 L 1255.7,361.45 L 1255.7,361.49 L 1255.7,361.52 L 1255.7,361.55 L 1255.7,361.59 L 1255.7,361.62 L 1255.7,361.64 L 1255.7,361.67 L 1255.7,361.7 L 1255.7,361.73 L 1255.6,361.75 L 1255.6,361.77 L 1255.6,361.82 L 1255.6,361.86 L 1255.6,361.9 L 1255.6,361.93 L 1255.6,361.96 L 1255.5,361.99 L 1255.5,362.02 L 1255.5,362.04 L 1255.5,362.06 L 1255.4,362.08 L 1255.4,362.09 L 1255.4,362.1 L 1255.3,362.12 L 1255.3,362.12 L 1255.2,362.13 L 1255.2,362.13 L 1255.2,362.14 L 1255.2,362.14 L 1255.1,362.14 L 1255.1,362.14 L 1255.1,362.14 L 1255,362.15 L 1255,362.15 L 1255,362.15 L 1254.9,362.15 L 1254.9,362.15 L 1254.9,362.15 L 1254.8,362.15 L 1254.8,362.15 L 1254.7,362.15 L 1254.7,362.15 L 1254.6,362.15 C 1252.4,359.96 1249.2,359.92 1247.8,359.92 L 1247.8,358.67 C 1248.6,358.67 1250.9,358.67 1252.9,359.64 L 1252.9,341.86 C 1252.9,340.71 1252.9,340.25 1249.4,340.25 L 1248,340.25 L 1248,339 C 1248.7,339.04 1253,339.14 1254.2,339.14 C 1255.3,339.14 1259.7,339.04 1260.5,339 L 1260.5,340.25 L 1259.2,340.25 C 1255.7,340.25 1255.7,340.71 1255.7,341.86 L 1255.7,361.18 z "
           style="fill:#ff0000;fill-opacity:1;stroke-width:0"
           id="path4426" /></g>    </g>
    <g
       transform="translate(-549.17721,60.087429)"
       style="fill:#0000ff;fill-opacity:1"
       id="g4482">
      <g
         transform="matrix(0.5314961,0,0,-0.5314961,-93.01181,393.30707)"
         style="font-style:normal;font-variant:normal;font-weight:normal;font-stretch:normal;letter-spacing:normal;word-spacing:normal;text-anchor:start;fill:#0000ff;fill-opacity:1;stroke:#000000;stroke-linecap:butt;stroke-linejoin:miter;stroke-miterlimit:10.43299961;stroke-dasharray:none;stroke-dashoffset:0;stroke-opacity:1"
         id="g4484"
         xml:space="preserve"><path
           d="M 1235.3,376.24 L 1235.3,376.37 L 1235.3,376.49 L 1235.4,376.6 L 1235.4,376.71 L 1235.4,376.82 L 1235.5,376.91 L 1235.5,377.01 L 1235.5,377.09 L 1235.5,377.18 L 1235.6,377.25 L 1235.6,377.33 L 1235.6,377.39 L 1235.7,377.46 L 1235.7,377.52 L 1235.7,377.57 L 1235.7,377.63 L 1235.8,377.67 L 1235.8,377.72 L 1235.8,377.76 L 1235.9,377.8 L 1235.9,377.83 L 1236,377.87 L 1236,377.9 L 1236,377.92 L 1236.1,377.95 L 1236.1,377.97 L 1236.2,377.99 L 1236.2,378.01 L 1236.3,378.03 L 1236.3,378.05 L 1236.4,378.06 L 1236.4,378.08 C 1236.9,378.18 1238.5,378.18 1239.6,378.18 C 1244.6,378.18 1246.8,377.98 1246.8,374.09 C 1246.8,373.35 1246.6,371.41 1246.4,370.11 C 1246.4,369.91 1246.3,369.31 1246.3,369.16 C 1246.3,368.86 1246.4,368.52 1246.9,368.52 C 1247.4,368.52 1247.5,368.91 1247.6,369.66 L 1249,378.33 C 1249,378.53 1249.1,379.03 1249.1,379.18 C 1249.1,379.72 1248.6,379.72 1247.7,379.72 L 1220.1,379.72 C 1218.9,379.72 1218.8,379.67 1218.5,378.73 L 1215.5,369.96 C 1215.4,369.86 1215.2,369.16 1215.2,369.06 C 1215.2,368.77 1215.4,368.52 1215.8,368.52 C 1216.3,368.52 1216.3,368.77 1216.6,369.56 C 1219.3,377.28 1220.6,378.18 1228,378.18 L 1229.9,378.18 C 1231.3,378.18 1231.3,377.98 1231.3,377.58 C 1231.3,377.28 1231.2,376.68 1231.1,376.54 L 1224.5,349.93 C 1224,348.09 1223.9,347.54 1218.5,347.54 C 1216.7,347.54 1216.4,347.54 1216.4,346.6 C 1216.4,346 1217,346 1217.3,346 C 1218.6,346 1220,346.1 1221.4,346.1 C 1222.8,346.1 1224.2,346.15 1225.6,346.15 C 1227,346.15 1228.4,346.1 1229.7,346.1 C 1231.2,346.1 1232.7,346 1234.1,346 C 1234.6,346 1235.2,346 1235.2,347 C 1235.2,347.54 1234.8,347.54 1233.5,347.54 C 1232.2,347.54 1231.6,347.54 1230.3,347.64 C 1228.8,347.79 1228.4,347.94 1228.4,348.74 C 1228.4,348.79 1228.4,349.04 1228.6,349.79 L 1235.3,376.24 z "
           style="fill:#0000ff;fill-opacity:1;stroke-width:0"
           id="path4486" /><path
           d="M 1261.6,345.35 L 1260.4,345.35 C 1260.3,344.58 1260,342.52 1259.5,342.17 C 1259.2,341.96 1256.6,341.96 1256.1,341.96 L 1249.7,341.96 C 1253.3,345.21 1254.5,346.18 1256.6,347.82 C 1259.2,349.88 1261.6,352.04 1261.6,355.36 C 1261.6,359.57 1257.9,362.15 1253.4,362.15 C 1249.1,362.15 1246.2,359.12 1246.2,355.91 C 1246.2,354.13 1247.7,353.96 1248,353.96 C 1248.9,353.96 1249.9,354.55 1249.9,355.81 C 1249.9,356.43 1249.7,357.66 1247.8,357.66 C 1248.9,360.13 1251.3,360.9 1252.9,360.9 C 1256.4,360.9 1258.2,358.18 1258.2,355.36 C 1258.2,352.32 1256.1,349.91 1254.9,348.66 L 1246.6,340.36 C 1246.2,340.05 1246.2,339.98 1246.2,339 L 1260.6,339 L 1261.6,345.35 z "
           style="fill:#0000ff;fill-opacity:1;stroke-width:0"
           id="path4488" /></g>    </g>
    <g
       id="g2254">
      <path
         d="M 239.96875,74.71875 L 225.8125,110.15625 L 226.75,110.53125 L 240.90625,75.09375 L 239.96875,74.71875 z "
         style="fill:#ff0000;fill-opacity:1;fill-rule:evenodd;stroke:none;stroke-width:1px;stroke-linecap:butt;stroke-linejoin:miter;stroke-opacity:1"
         id="path4520" />
      <path
         d="M 230.46159,106.38437 L 225.78871,111.57574 L 225.98516,104.5938 C 226.91764,106.09477 228.72784,106.81235 230.46159,106.38437 z "
         style="font-size:12px;fill:#ff0000;fill-rule:evenodd;stroke:#ff0000;stroke-width:0.375;stroke-linejoin:round"
         id="path2260" />
    </g>
    <g
       id="g2262">
      <path
         d="M 232.875,244.84375 L 218.71875,287.34375 L 219.65625,287.65625 L 233.84375,245.15625 L 232.875,244.84375 z "
         style="fill:#0000ff;fill-opacity:1;fill-rule:evenodd;stroke:none;stroke-width:1px;stroke-linecap:butt;stroke-linejoin:miter;stroke-opacity:1"
         id="path4522" />
      <path
         d="M 223.13532,283.31052 L 218.77535,288.76733 L 218.56146,281.7859 C 219.58048,283.22952 221.4297,283.83957 223.13532,283.31052 z "
         style="font-size:12px;fill:#0000ff;fill-rule:evenodd;stroke:#0000ff;stroke-width:0.375;stroke-linejoin:round"
         id="path2268" />
    </g>
    <text
       x="86.935371"
       y="81.496063"
       style="font-size:24px;font-style:normal;font-variant:normal;font-weight:normal;font-stretch:normal;text-align:start;line-height:125%;writing-mode:lr-tb;text-anchor:start;fill:#000000;fill-opacity:1;stroke:none;stroke-width:1px;stroke-linecap:butt;stroke-linejoin:miter;stroke-opacity:1;font-family:Bitstream Charter"
       id="text7958"
       xml:space="preserve"><tspan
         x="86.935371"
         y="81.496063"
         id="tspan7960">A</tspan></text>
    <text
       x="398.23825"
       y="79.604218"
       style="font-size:24px;font-style:normal;font-variant:normal;font-weight:normal;font-stretch:normal;text-align:start;line-height:125%;writing-mode:lr-tb;text-anchor:start;fill:#000000;fill-opacity:1;stroke:none;stroke-width:1px;stroke-linecap:butt;stroke-linejoin:miter;stroke-opacity:1;font-family:Bitstream Charter"
       id="text7962"
       xml:space="preserve"><tspan
         x="398.23825"
         y="79.604218"
         id="tspan7964">B</tspan></text>
    <text
       x="394.20377"
       y="288.2865"
       style="font-size:24px;font-style:normal;font-variant:normal;font-weight:normal;font-stretch:normal;text-align:start;line-height:125%;writing-mode:lr-tb;text-anchor:start;fill:#000000;fill-opacity:1;stroke:none;stroke-width:1px;stroke-linecap:butt;stroke-linejoin:miter;stroke-opacity:1;font-family:Bitstream Charter"
       id="text7966"
       xml:space="preserve"><tspan
         x="394.20377"
         y="288.2865"
         id="tspan7968">C</tspan></text>
    <text
       x="84.075211"
       y="287.61203"
       style="font-size:24px;font-style:normal;font-variant:normal;font-weight:normal;font-stretch:normal;text-align:start;line-height:125%;writing-mode:lr-tb;text-anchor:start;fill:#000000;fill-opacity:1;stroke:none;stroke-width:1px;stroke-linecap:butt;stroke-linejoin:miter;stroke-opacity:1;font-family:Bitstream Charter"
       id="text7970"
       xml:space="preserve"><tspan
         x="84.075211"
         y="287.61203"
         id="tspan7972">D</tspan></text>
    <g
       transform="translate(-104.84645,154.96655)"
       id="g2258">
      <g
         transform="matrix(0.5314961,0,0,-0.5314961,-93.01181,393.30707)"
         style="font-style:normal;font-variant:normal;font-weight:normal;font-stretch:normal;letter-spacing:normal;word-spacing:normal;text-anchor:start;fill:none;fill-opacity:1;stroke:#000000;stroke-linecap:butt;stroke-linejoin:miter;stroke-miterlimit:10.43299961;stroke-dasharray:none;stroke-dashoffset:0;stroke-opacity:1"
         id="g2260"
         xml:space="preserve"><path
           d="M 1255.1,380.62 L 1255.1,380.64 L 1255.1,380.65 L 1255.1,380.67 L 1255.1,380.69 L 1255.1,380.7 L 1255.1,380.72 L 1255.1,380.74 L 1255.1,380.76 L 1255.1,380.78 L 1255.1,380.8 L 1255.1,380.82 L 1255.1,380.84 L 1255.1,380.86 L 1255.1,380.88 L 1255,380.9 L 1255,380.92 L 1255,380.94 L 1255,380.96 L 1255,380.98 L 1255,381 L 1254.9,381.02 L 1254.9,381.03 L 1254.9,381.05 L 1254.9,381.06 L 1254.8,381.07 L 1254.8,381.08 L 1254.8,381.08 L 1254.8,381.09 L 1254.8,381.09 L 1254.7,381.1 L 1254.7,381.1 L 1254.7,381.11 L 1254.7,381.11 L 1254.7,381.11 L 1254.7,381.11 L 1254.6,381.11 L 1254.6,381.12 L 1254.6,381.12 L 1254.6,381.12 C 1254.3,381.12 1254.3,381.07 1253.7,380.37 L 1251.3,377.53 C 1250,379.87 1247.4,381.12 1244.2,381.12 C 1237.8,381.12 1231.9,375.39 1231.9,369.36 C 1231.9,365.33 1234.5,363.04 1237.1,362.29 L 1242.4,360.89 C 1244.2,360.45 1247,359.7 1247,355.61 C 1247,351.13 1242.9,346.45 1238,346.45 C 1234.8,346.45 1229.3,347.54 1229.3,353.72 C 1229.3,354.92 1229.5,356.11 1229.6,356.41 C 1229.6,356.61 1229.7,356.66 1229.7,356.76 C 1229.7,357.26 1229.3,357.31 1229.1,357.31 C 1228.8,357.31 1228.7,357.26 1228.6,357.11 C 1228.4,356.91 1225.6,345.55 1225.6,345.4 C 1225.6,345.1 1225.8,344.9 1226.1,344.9 C 1226.4,344.9 1226.4,344.95 1227,345.65 L 1229.5,348.49 C 1231.6,345.6 1235,344.9 1237.9,344.9 C 1244.7,344.9 1250.6,351.53 1250.6,357.71 C 1250.6,361.14 1248.8,362.84 1248.1,363.54 C 1247,364.68 1246.2,364.88 1241.8,366.02 C 1240.7,366.32 1238.9,366.82 1238.4,366.92 C 1237.1,367.37 1235.4,368.81 1235.4,371.45 C 1235.4,375.49 1239.4,379.72 1244.1,379.72 C 1248.2,379.72 1251.3,377.58 1251.3,372 C 1251.3,370.41 1251.1,369.51 1251.1,369.21 C 1251.1,369.16 1251.1,368.71 1251.7,368.71 C 1252.2,368.71 1252.2,368.86 1252.4,369.71 L 1255.1,380.62 z "
           style="fill:#000000;stroke-width:0"
           id="path2262" /></g>    </g>
    <g
       transform="translate(-550.02761,-177.51966)"
       id="g2368">
      <g
         transform="matrix(0.5314961,0,0,-0.5314961,-93.01181,393.30707)"
         style="font-style:normal;font-variant:normal;font-weight:normal;font-stretch:normal;letter-spacing:normal;word-spacing:normal;text-anchor:start;fill:none;fill-opacity:1;stroke:#000000;stroke-linecap:butt;stroke-linejoin:miter;stroke-miterlimit:10.43299961;stroke-dasharray:none;stroke-dashoffset:0;stroke-opacity:1"
         id="g2370"
         xml:space="preserve"><path
           d="M 1243.3,376.24 L 1243.3,376.37 L 1243.3,376.49 L 1243.4,376.6 L 1243.4,376.71 L 1243.4,376.82 L 1243.5,376.91 L 1243.5,377.01 L 1243.5,377.09 L 1243.5,377.18 L 1243.6,377.25 L 1243.6,377.33 L 1243.6,377.39 L 1243.7,377.46 L 1243.7,377.52 L 1243.7,377.57 L 1243.7,377.63 L 1243.8,377.67 L 1243.8,377.72 L 1243.8,377.76 L 1243.9,377.8 L 1243.9,377.83 L 1244,377.87 L 1244,377.9 L 1244,377.92 L 1244.1,377.95 L 1244.1,377.97 L 1244.2,377.99 L 1244.2,378.01 L 1244.3,378.03 L 1244.3,378.05 L 1244.4,378.06 L 1244.4,378.08 C 1244.9,378.18 1246.5,378.18 1247.6,378.18 C 1252.6,378.18 1254.8,377.98 1254.8,374.09 C 1254.8,373.35 1254.6,371.41 1254.4,370.11 C 1254.4,369.91 1254.3,369.31 1254.3,369.16 C 1254.3,368.86 1254.4,368.52 1254.9,368.52 C 1255.4,368.52 1255.5,368.91 1255.6,369.66 L 1257,378.33 C 1257,378.53 1257.1,379.03 1257.1,379.18 C 1257.1,379.72 1256.6,379.72 1255.7,379.72 L 1228.1,379.72 C 1226.9,379.72 1226.8,379.67 1226.5,378.73 L 1223.5,369.96 C 1223.4,369.86 1223.2,369.16 1223.2,369.06 C 1223.2,368.77 1223.4,368.52 1223.8,368.52 C 1224.3,368.52 1224.3,368.77 1224.6,369.56 C 1227.3,377.28 1228.6,378.18 1236,378.18 L 1237.9,378.18 C 1239.3,378.18 1239.3,377.98 1239.3,377.58 C 1239.3,377.28 1239.2,376.68 1239.1,376.54 L 1232.5,349.93 C 1232,348.09 1231.9,347.54 1226.5,347.54 C 1224.7,347.54 1224.4,347.54 1224.4,346.6 C 1224.4,346 1225,346 1225.3,346 C 1226.6,346 1228,346.1 1229.4,346.1 C 1230.8,346.1 1232.2,346.15 1233.6,346.15 C 1235,346.15 1236.4,346.1 1237.7,346.1 C 1239.2,346.1 1240.7,346 1242.1,346 C 1242.6,346 1243.2,346 1243.2,347 C 1243.2,347.54 1242.8,347.54 1241.5,347.54 C 1240.2,347.54 1239.6,347.54 1238.3,347.64 C 1236.8,347.79 1236.4,347.94 1236.4,348.74 C 1236.4,348.79 1236.4,349.04 1236.6,349.79 L 1243.3,376.24 z "
           style="fill:#000000;stroke-width:0"
           id="path2372" /></g>    </g>
    <g
       id="g2288">
      <path
         d="M 106.8125,87.59375 L 106.8125,88.59375 L 248.53125,88.59375 L 390.25,88.59375 L 390.25,87.59375 L 248.53125,87.59375 L 106.8125,87.59375 z "
         style="fill:#000000;fill-opacity:1;fill-rule:evenodd;stroke:none;stroke-width:1px;stroke-linecap:butt;stroke-linejoin:miter;stroke-opacity:1"
         id="path2428" />
      <path
         d="M 253.1475,88.082674 L 246.2275,92.082674 L 246.2275,84.082674 L 253.1475,88.082674 z "
         style="fill-rule:evenodd;stroke:#000000;stroke-width:0.8pt;marker-start:none"
         id="path2294" />
    </g>
    <g
       id="g2304">
      <path
         d="M 106.8125,264.75 L 106.8125,265.75 L 248.53125,265.75 L 390.25,265.75 L 390.25,264.75 L 248.53125,264.75 L 106.8125,264.75 z "
         style="fill:#000000;fill-opacity:1;fill-rule:evenodd;stroke:none;stroke-width:1px;stroke-linecap:butt;stroke-linejoin:miter;stroke-opacity:1"
         id="path2430" />
      <path
         d="M 243.9155,265.24803 L 250.8355,261.24803 L 250.8355,269.24803 L 243.9155,265.24803 z "
         style="fill-rule:evenodd;stroke:#000000;stroke-width:0.8pt;marker-start:none"
         id="path2310" />
    </g>
    <g
       id="g2296">
      <path
         d="M 106.3125,88.09375 L 106.3125,173.125 L 106.3125,265.25 L 107.3125,265.25 L 107.3125,173.125 L 107.3125,88.09375 L 106.3125,88.09375 z "
         style="fill:#000000;fill-opacity:1;fill-rule:evenodd;stroke:none;stroke-width:1px;stroke-linecap:butt;stroke-linejoin:miter;stroke-opacity:1"
         id="path2432" />
      <path
         d="M 106.79921,168.50604 L 110.79921,175.42604 L 102.79921,175.42604 L 106.79921,168.50604 z "
         style="fill-rule:evenodd;stroke:#000000;stroke-width:0.8pt;marker-start:none"
         id="path2302" />
    </g>
    <g
       id="g2280">
      <path
         d="M 389.75,88.09375 L 389.75,173.125 L 389.75,265.25 L 390.75,265.25 L 390.75,173.125 L 390.75,88.09375 L 389.75,88.09375 z "
         style="fill:#000000;fill-opacity:1;fill-rule:evenodd;stroke:none;stroke-width:1px;stroke-linecap:butt;stroke-linejoin:miter;stroke-opacity:1"
         id="path2434" />
      <path
         d="M 390.26378,177.73804 L 386.26378,170.81804 L 394.26378,170.81804 L 390.26378,177.73804 z "
         style="fill-rule:evenodd;stroke:#000000;stroke-width:0.8pt;marker-start:none"
         id="path2286" />
    </g>
    <path
       d="M 35.433071,88.582674 L 106.29921,88.582674"
       style="fill:none;fill-rule:evenodd;stroke:#ff0000;stroke-width:1;stroke-linecap:butt;stroke-linejoin:miter;stroke-miterlimit:4;stroke-dasharray:3, 3;stroke-dashoffset:0;stroke-opacity:1"
       id="path3417" />
    <path
       d="M 35.433071,265.74803 L 106.29921,265.74803"
       style="fill:none;fill-rule:evenodd;stroke:#0000ff;stroke-width:1;stroke-linecap:butt;stroke-linejoin:miter;stroke-miterlimit:4;stroke-dasharray:3, 3;stroke-dashoffset:0;stroke-opacity:1"
       id="path3419" />
    <g
       transform="translate(-304.58267,-148.70372)"
       style="fill:#ff0000;fill-opacity:1"
       id="g3475">
      <g
         transform="matrix(0.5314961,0,0,-0.5314961,-93.01181,393.30707)"
         style="font-style:normal;font-variant:normal;font-weight:normal;font-stretch:normal;letter-spacing:normal;word-spacing:normal;text-anchor:start;fill:#ff0000;fill-opacity:1;stroke:#000000;stroke-linecap:butt;stroke-linejoin:miter;stroke-miterlimit:10.43299961;stroke-dasharray:none;stroke-dashoffset:0;stroke-opacity:1"
         id="g3477"
         xml:space="preserve"><path
           d="M 1060.8,346.3 L 1061.5,346.59 L 1062.3,346.92 L 1063,347.28 L 1063.7,347.67 L 1064.4,348.09 L 1065.1,348.54 L 1065.8,349.03 L 1066.4,349.53 L 1067.1,350.07 L 1067.7,350.63 L 1068.4,351.22 L 1069,351.83 L 1069.6,352.47 L 1070.1,353.13 L 1070.7,353.81 L 1071.2,354.51 L 1071.7,355.23 L 1072.2,355.96 L 1072.7,356.72 L 1073.1,357.49 L 1073.5,358.28 L 1073.9,359.08 L 1074.3,359.9 L 1074.6,360.73 L 1074.9,361.57 L 1075.1,362.42 L 1075.4,363.29 L 1075.5,364.16 L 1075.7,365.04 L 1075.8,365.93 L 1075.8,366.82 L 1075.9,367.72 C 1075.9,375.74 1070.6,381.12 1063.2,381.12 L 1062.9,379.87 C 1067.8,379.87 1071.5,375.99 1071.5,369.31 C 1071.5,364.33 1068.9,352.68 1060.6,347.99 C 1060.3,349.73 1059.8,353.37 1056.2,353.37 C 1053.6,353.37 1051.1,350.88 1051.1,348.29 L 1052.2,348.29 C 1052.2,350.29 1054.1,352.28 1056.2,352.28 C 1058.3,352.28 1059.2,351.08 1059.2,348.04 C 1059.2,347.3 1059.2,347.25 1058.7,347.05 C 1057.4,346.5 1055.9,346.15 1054.5,346.15 L 1054.5,346.15 C 1053.8,346.15 1052.2,346.15 1052.2,348.29 L 1051.1,348.29 C 1051.1,347.3 1051.4,346.75 1051.4,346.7 L 1051.4,346.7 C 1047.5,348.24 1045.8,352.13 1045.8,356.61 C 1045.8,360.05 1047.1,367.12 1050.9,372.5 C 1054.5,377.58 1059.2,379.87 1062.9,379.87 L 1063.2,381.12 C 1052.4,381.12 1041.4,369.81 1041.4,358.2 C 1041.4,349.93 1047,344.9 1054.2,344.9 C 1055.4,344.9 1057.1,345.1 1059.1,345.65 C 1058.9,342.56 1058.9,342.46 1058.9,341.82 C 1058.9,340.22 1058.9,336.34 1063,336.34 C 1068.9,336.34 1071.3,345.45 1071.3,346 C 1071.3,346.35 1071,346.5 1070.8,346.5 C 1070.4,346.5 1070.3,346.25 1070.2,345.95 C 1069,342.41 1066.1,341.17 1064.4,341.17 C 1062.1,341.17 1061.3,342.51 1060.8,346.3 z "
           style="fill:#ff0000;fill-opacity:1;stroke-width:0"
           id="path3479" /><path
           d="M 1089.7,361.18 L 1089.7,361.22 L 1089.7,361.26 L 1089.7,361.3 L 1089.7,361.34 L 1089.7,361.38 L 1089.7,361.42 L 1089.7,361.45 L 1089.7,361.49 L 1089.7,361.52 L 1089.7,361.55 L 1089.7,361.59 L 1089.7,361.62 L 1089.7,361.64 L 1089.7,361.67 L 1089.7,361.7 L 1089.7,361.73 L 1089.6,361.75 L 1089.6,361.77 L 1089.6,361.82 L 1089.6,361.86 L 1089.6,361.9 L 1089.6,361.93 L 1089.6,361.96 L 1089.5,361.99 L 1089.5,362.02 L 1089.5,362.04 L 1089.5,362.06 L 1089.4,362.08 L 1089.4,362.09 L 1089.4,362.1 L 1089.3,362.12 L 1089.3,362.12 L 1089.2,362.13 L 1089.2,362.13 L 1089.2,362.14 L 1089.2,362.14 L 1089.1,362.14 L 1089.1,362.14 L 1089.1,362.14 L 1089,362.15 L 1089,362.15 L 1089,362.15 L 1088.9,362.15 L 1088.9,362.15 L 1088.9,362.15 L 1088.8,362.15 L 1088.8,362.15 L 1088.7,362.15 L 1088.7,362.15 L 1088.6,362.15 C 1086.4,359.96 1083.2,359.92 1081.8,359.92 L 1081.8,358.67 C 1082.6,358.67 1084.9,358.67 1086.9,359.64 L 1086.9,341.86 C 1086.9,340.71 1086.9,340.25 1083.4,340.25 L 1082,340.25 L 1082,339 C 1082.7,339.04 1087,339.14 1088.2,339.14 C 1089.3,339.14 1093.7,339.04 1094.5,339 L 1094.5,340.25 L 1093.2,340.25 C 1089.7,340.25 1089.7,340.71 1089.7,341.86 L 1089.7,361.18 z "
           style="fill:#ff0000;fill-opacity:1;stroke-width:0"
           id="path3481" /><path
           d="M 1148.2,362.29 L 1148.4,362.29 L 1148.5,362.29 L 1148.7,362.3 L 1148.7,362.3 L 1148.8,362.3 L 1148.9,362.31 L 1148.9,362.32 L 1149,362.33 L 1149.1,362.34 L 1149.2,362.36 L 1149.2,362.37 L 1149.3,362.39 L 1149.3,362.41 L 1149.4,362.44 L 1149.5,362.47 L 1149.5,362.5 L 1149.6,362.53 L 1149.6,362.57 L 1149.7,362.61 L 1149.7,362.66 L 1149.8,362.71 L 1149.8,362.74 L 1149.8,362.76 L 1149.8,362.79 L 1149.8,362.82 L 1149.8,362.85 L 1149.8,362.89 L 1149.9,362.92 L 1149.9,362.96 L 1149.9,362.99 L 1149.9,363.03 L 1149.9,363.07 L 1149.9,363.11 L 1149.9,363.15 L 1149.9,363.19 L 1149.9,363.24 L 1149.9,363.29 C 1149.9,364.28 1149,364.28 1148.3,364.28 L 1118.4,364.28 C 1117.7,364.28 1116.8,364.28 1116.8,363.29 C 1116.8,362.29 1117.7,362.29 1118.5,362.29 L 1148.2,362.29 z "
           style="fill:#ff0000;fill-opacity:1;stroke-width:0"
           id="path3483" /><path
           d="M 1148.3,352.62 L 1148.4,352.63 L 1148.5,352.63 L 1148.7,352.63 L 1148.8,352.64 L 1148.8,352.64 L 1148.9,352.65 L 1149,352.66 L 1149,352.67 L 1149.1,352.68 L 1149.2,352.69 L 1149.2,352.71 L 1149.3,352.73 L 1149.4,352.75 L 1149.4,352.77 L 1149.5,352.8 L 1149.5,352.83 L 1149.6,352.87 L 1149.6,352.91 L 1149.7,352.95 L 1149.7,352.99 L 1149.7,353.02 L 1149.8,353.05 L 1149.8,353.07 L 1149.8,353.1 L 1149.8,353.13 L 1149.8,353.16 L 1149.8,353.19 L 1149.8,353.22 L 1149.9,353.26 L 1149.9,353.29 L 1149.9,353.33 L 1149.9,353.37 L 1149.9,353.41 L 1149.9,353.45 L 1149.9,353.49 L 1149.9,353.53 L 1149.9,353.58 L 1149.9,353.62 C 1149.9,354.62 1149,354.62 1148.2,354.62 L 1118.5,354.62 C 1117.7,354.62 1116.8,354.62 1116.8,353.62 C 1116.8,352.62 1117.7,352.62 1118.4,352.62 L 1148.3,352.62 z "
           style="fill:#ff0000;fill-opacity:1;stroke-width:0"
           id="path3485" /><path
           d="M 1188.3,376.24 L 1188.3,376.37 L 1188.3,376.49 L 1188.4,376.6 L 1188.4,376.71 L 1188.4,376.82 L 1188.5,376.91 L 1188.5,377.01 L 1188.5,377.09 L 1188.5,377.18 L 1188.6,377.25 L 1188.6,377.33 L 1188.6,377.39 L 1188.7,377.46 L 1188.7,377.52 L 1188.7,377.57 L 1188.7,377.63 L 1188.8,377.67 L 1188.8,377.72 L 1188.8,377.76 L 1188.9,377.8 L 1188.9,377.83 L 1189,377.87 L 1189,377.9 L 1189,377.92 L 1189.1,377.95 L 1189.1,377.97 L 1189.2,377.99 L 1189.2,378.01 L 1189.3,378.03 L 1189.3,378.05 L 1189.4,378.06 L 1189.4,378.08 C 1189.9,378.18 1191.5,378.18 1192.6,378.18 C 1197.6,378.18 1199.8,377.98 1199.8,374.09 C 1199.8,373.35 1199.6,371.41 1199.4,370.11 C 1199.4,369.91 1199.3,369.31 1199.3,369.16 C 1199.3,368.86 1199.4,368.52 1199.9,368.52 C 1200.4,368.52 1200.5,368.91 1200.6,369.66 L 1202,378.33 C 1202,378.53 1202.1,379.03 1202.1,379.18 C 1202.1,379.72 1201.6,379.72 1200.7,379.72 L 1173.1,379.72 C 1171.9,379.72 1171.8,379.67 1171.5,378.73 L 1168.5,369.96 C 1168.4,369.86 1168.2,369.16 1168.2,369.06 C 1168.2,368.77 1168.4,368.52 1168.8,368.52 C 1169.3,368.52 1169.3,368.77 1169.6,369.56 C 1172.3,377.28 1173.6,378.18 1181,378.18 L 1182.9,378.18 C 1184.3,378.18 1184.3,377.98 1184.3,377.58 C 1184.3,377.28 1184.2,376.68 1184.1,376.54 L 1177.5,349.93 C 1177,348.09 1176.9,347.54 1171.5,347.54 C 1169.7,347.54 1169.4,347.54 1169.4,346.6 C 1169.4,346 1170,346 1170.3,346 C 1171.6,346 1173,346.1 1174.4,346.1 C 1175.8,346.1 1177.2,346.15 1178.6,346.15 C 1180,346.15 1181.4,346.1 1182.7,346.1 C 1184.2,346.1 1185.7,346 1187.1,346 C 1187.6,346 1188.2,346 1188.2,347 C 1188.2,347.54 1187.8,347.54 1186.5,347.54 C 1185.2,347.54 1184.6,347.54 1183.3,347.64 C 1181.8,347.79 1181.4,347.94 1181.4,348.74 C 1181.4,348.79 1181.4,349.04 1181.6,349.79 L 1188.3,376.24 z "
           style="fill:#ff0000;fill-opacity:1;stroke-width:0"
           id="path3487" /><path
           d="M 1207.7,361.18 L 1207.7,361.22 L 1207.7,361.26 L 1207.7,361.3 L 1207.7,361.34 L 1207.7,361.38 L 1207.7,361.42 L 1207.7,361.45 L 1207.7,361.49 L 1207.7,361.52 L 1207.7,361.55 L 1207.7,361.59 L 1207.7,361.62 L 1207.7,361.64 L 1207.7,361.67 L 1207.7,361.7 L 1207.7,361.73 L 1207.6,361.75 L 1207.6,361.77 L 1207.6,361.82 L 1207.6,361.86 L 1207.6,361.9 L 1207.6,361.93 L 1207.6,361.96 L 1207.5,361.99 L 1207.5,362.02 L 1207.5,362.04 L 1207.5,362.06 L 1207.4,362.08 L 1207.4,362.09 L 1207.4,362.1 L 1207.3,362.12 L 1207.3,362.12 L 1207.2,362.13 L 1207.2,362.13 L 1207.2,362.14 L 1207.2,362.14 L 1207.1,362.14 L 1207.1,362.14 L 1207.1,362.14 L 1207,362.15 L 1207,362.15 L 1207,362.15 L 1206.9,362.15 L 1206.9,362.15 L 1206.9,362.15 L 1206.8,362.15 L 1206.8,362.15 L 1206.7,362.15 L 1206.7,362.15 L 1206.6,362.15 C 1204.4,359.96 1201.2,359.92 1199.8,359.92 L 1199.8,358.67 C 1200.6,358.67 1202.9,358.67 1204.9,359.64 L 1204.9,341.86 C 1204.9,340.71 1204.9,340.25 1201.4,340.25 L 1200,340.25 L 1200,339 C 1200.7,339.04 1205,339.14 1206.2,339.14 C 1207.3,339.14 1211.7,339.04 1212.5,339 L 1212.5,340.25 L 1211.2,340.25 C 1207.7,340.25 1207.7,340.71 1207.7,341.86 L 1207.7,361.18 z "
           style="fill:#ff0000;fill-opacity:1;stroke-width:0"
           id="path3489" /><path
           d="M 1234.5,334.04 L 1234.5,334.07 L 1234.5,334.1 L 1234.5,334.11 L 1234.5,334.13 L 1234.5,334.14 L 1234.5,334.16 L 1234.5,334.18 L 1234.5,334.19 L 1234.5,334.21 L 1234.4,334.23 L 1234.4,334.26 L 1234.4,334.28 L 1234.4,334.3 L 1234.4,334.33 L 1234.4,334.36 L 1234.3,334.39 L 1234.3,334.42 L 1234.3,334.46 L 1234.3,334.48 L 1234.2,334.5 L 1234.2,334.52 L 1234.2,334.54 L 1234.2,334.56 L 1234.2,334.59 L 1234.2,334.61 L 1234.1,334.63 L 1234.1,334.66 L 1234.1,334.68 L 1234.1,334.71 L 1234,334.74 L 1234,334.77 L 1234,334.8 L 1234,334.83 L 1233.9,334.86 L 1233.9,334.89 L 1233.9,334.92 L 1233.8,334.96 L 1233.8,334.99 L 1233.8,335.03 L 1233.7,335.06 L 1233.7,335.1 L 1233.6,335.14 C 1227.4,341.42 1225.8,350.83 1225.8,358.45 C 1225.8,367.12 1227.7,375.79 1233.8,382.02 C 1234.5,382.61 1234.5,382.71 1234.5,382.86 C 1234.5,383.21 1234.3,383.36 1234,383.36 C 1233.5,383.36 1229,379.97 1226.1,373.64 C 1223.5,368.17 1222.9,362.64 1222.9,358.45 C 1222.9,354.57 1223.5,348.54 1226.2,342.91 C 1229.2,336.79 1233.5,333.55 1234,333.55 C 1234.3,333.55 1234.5,333.7 1234.5,334.04 z "
           style="fill:#ff0000;fill-opacity:1;stroke-width:0"
           id="path3491" /><path
           d="M 1270.1,380.62 L 1270.1,380.64 L 1270.1,380.65 L 1270.1,380.67 L 1270.1,380.69 L 1270.1,380.7 L 1270.1,380.72 L 1270.1,380.74 L 1270.1,380.76 L 1270.1,380.78 L 1270.1,380.8 L 1270.1,380.82 L 1270.1,380.84 L 1270.1,380.86 L 1270.1,380.88 L 1270,380.9 L 1270,380.92 L 1270,380.94 L 1270,380.96 L 1270,380.98 L 1270,381 L 1269.9,381.02 L 1269.9,381.03 L 1269.9,381.05 L 1269.9,381.06 L 1269.8,381.07 L 1269.8,381.08 L 1269.8,381.08 L 1269.8,381.09 L 1269.8,381.09 L 1269.7,381.1 L 1269.7,381.1 L 1269.7,381.11 L 1269.7,381.11 L 1269.7,381.11 L 1269.7,381.11 L 1269.6,381.11 L 1269.6,381.12 L 1269.6,381.12 L 1269.6,381.12 C 1269.3,381.12 1269.3,381.07 1268.7,380.37 L 1266.3,377.53 C 1265,379.87 1262.4,381.12 1259.2,381.12 C 1252.8,381.12 1246.9,375.39 1246.9,369.36 C 1246.9,365.33 1249.5,363.04 1252.1,362.29 L 1257.4,360.89 C 1259.2,360.45 1262,359.7 1262,355.61 C 1262,351.13 1257.9,346.45 1253,346.45 C 1249.8,346.45 1244.3,347.54 1244.3,353.72 C 1244.3,354.92 1244.5,356.11 1244.6,356.41 C 1244.6,356.61 1244.7,356.66 1244.7,356.76 C 1244.7,357.26 1244.3,357.31 1244.1,357.31 C 1243.8,357.31 1243.7,357.26 1243.6,357.11 C 1243.4,356.91 1240.6,345.55 1240.6,345.4 C 1240.6,345.1 1240.8,344.9 1241.1,344.9 C 1241.4,344.9 1241.4,344.95 1242,345.65 L 1244.5,348.49 C 1246.6,345.6 1250,344.9 1252.9,344.9 C 1259.7,344.9 1265.6,351.53 1265.6,357.71 C 1265.6,361.14 1263.8,362.84 1263.1,363.54 C 1262,364.68 1261.2,364.88 1256.8,366.02 C 1255.7,366.32 1253.9,366.82 1253.4,366.92 C 1252.1,367.37 1250.4,368.81 1250.4,371.45 C 1250.4,375.49 1254.4,379.72 1259.1,379.72 C 1263.2,379.72 1266.3,377.58 1266.3,372 C 1266.3,370.41 1266.1,369.51 1266.1,369.21 C 1266.1,369.16 1266.1,368.71 1266.7,368.71 C 1267.2,368.71 1267.2,368.86 1267.4,369.71 L 1270.1,380.62 z "
           style="fill:#ff0000;fill-opacity:1;stroke-width:0"
           id="path3493" /><path
           d="M 1270.1,362.82 L 1270.1,361.56 L 1270.9,361.56 C 1273.6,361.56 1273.7,361.21 1273.7,359.99 L 1273.7,341.82 C 1273.7,340.64 1273.6,340.25 1270.9,340.25 L 1270.1,340.25 L 1270.1,339 L 1284.9,339 C 1289.8,339 1293.4,342.07 1293.4,345.38 C 1293.4,348.41 1290.3,351 1286.1,351.45 C 1289.5,352.07 1292.3,354.2 1292.3,356.89 C 1292.3,360.03 1288.7,362.82 1283.8,362.82 L 1283.6,361.56 C 1287,361.56 1288.8,359.09 1288.8,356.89 C 1288.8,354.41 1286.5,351.87 1282.5,351.87 L 1276.8,351.87 L 1276.8,350.89 L 1284.2,350.89 C 1287.9,350.89 1289.8,347.89 1289.8,345.45 C 1289.8,342.87 1287.5,340.25 1283.7,340.25 L 1278.4,340.25 C 1276.8,340.25 1276.8,340.54 1276.8,341.61 L 1276.8,350.89 L 1276.8,351.87 L 1276.8,360.2 C 1276.8,361.28 1276.8,361.56 1278.4,361.56 L 1283.6,361.56 L 1283.8,362.82 L 1270.1,362.82 z "
           style="fill:#ff0000;fill-opacity:1;stroke-width:0"
           id="path3495" /><path
           d="M 1342.9,357.46 L 1343,357.46 L 1343.1,357.46 L 1343.2,357.46 L 1343.3,357.46 L 1343.4,357.47 L 1343.5,357.47 L 1343.5,357.48 L 1343.6,357.49 L 1343.7,357.5 L 1343.8,357.51 L 1343.8,357.52 L 1343.9,357.54 L 1343.9,357.56 L 1344,357.58 L 1344.1,357.61 L 1344.1,357.63 L 1344.2,357.67 L 1344.2,357.7 L 1344.3,357.74 L 1344.3,357.78 L 1344.4,357.83 L 1344.4,357.85 L 1344.4,357.88 L 1344.4,357.9 L 1344.4,357.93 L 1344.5,357.96 L 1344.5,357.99 L 1344.5,358.02 L 1344.5,358.06 L 1344.5,358.09 L 1344.5,358.12 L 1344.5,358.16 L 1344.5,358.2 L 1344.6,358.24 L 1344.6,358.28 L 1344.6,358.32 L 1344.6,358.36 L 1344.6,358.41 L 1344.6,358.45 C 1344.6,359.45 1343.6,359.45 1342.9,359.45 L 1315.8,359.45 C 1315.1,359.45 1314.1,359.45 1314.1,358.45 C 1314.1,357.46 1315.1,357.46 1315.8,357.46 L 1342.9,357.46 z "
           style="fill:#ff0000;fill-opacity:1;stroke-width:0"
           id="path3497" /><path
           d="M 1392.1,380.62 L 1392.1,380.64 L 1392.1,380.65 L 1392.1,380.67 L 1392.1,380.69 L 1392.1,380.7 L 1392.1,380.72 L 1392.1,380.74 L 1392.1,380.76 L 1392.1,380.78 L 1392.1,380.8 L 1392.1,380.82 L 1392.1,380.84 L 1392.1,380.86 L 1392.1,380.88 L 1392,380.9 L 1392,380.92 L 1392,380.94 L 1392,380.96 L 1392,380.98 L 1392,381 L 1391.9,381.02 L 1391.9,381.03 L 1391.9,381.05 L 1391.9,381.06 L 1391.8,381.07 L 1391.8,381.08 L 1391.8,381.08 L 1391.8,381.09 L 1391.8,381.09 L 1391.7,381.1 L 1391.7,381.1 L 1391.7,381.11 L 1391.7,381.11 L 1391.7,381.11 L 1391.7,381.11 L 1391.6,381.11 L 1391.6,381.12 L 1391.6,381.12 L 1391.6,381.12 C 1391.3,381.12 1391.3,381.07 1390.7,380.37 L 1388.3,377.53 C 1387,379.87 1384.4,381.12 1381.2,381.12 C 1374.8,381.12 1368.9,375.39 1368.9,369.36 C 1368.9,365.33 1371.5,363.04 1374.1,362.29 L 1379.4,360.89 C 1381.2,360.45 1384,359.7 1384,355.61 C 1384,351.13 1379.9,346.45 1375,346.45 C 1371.8,346.45 1366.3,347.54 1366.3,353.72 C 1366.3,354.92 1366.5,356.11 1366.6,356.41 C 1366.6,356.61 1366.7,356.66 1366.7,356.76 C 1366.7,357.26 1366.3,357.31 1366.1,357.31 C 1365.8,357.31 1365.7,357.26 1365.6,357.11 C 1365.4,356.91 1362.6,345.55 1362.6,345.4 C 1362.6,345.1 1362.8,344.9 1363.1,344.9 C 1363.4,344.9 1363.4,344.95 1364,345.65 L 1366.5,348.49 C 1368.6,345.6 1372,344.9 1374.9,344.9 C 1381.7,344.9 1387.6,351.53 1387.6,357.71 C 1387.6,361.14 1385.8,362.84 1385.1,363.54 C 1384,364.68 1383.2,364.88 1378.8,366.02 C 1377.7,366.32 1375.9,366.82 1375.4,366.92 C 1374.1,367.37 1372.4,368.81 1372.4,371.45 C 1372.4,375.49 1376.4,379.72 1381.1,379.72 C 1385.2,379.72 1388.3,377.58 1388.3,372 C 1388.3,370.41 1388.1,369.51 1388.1,369.21 C 1388.1,369.16 1388.1,368.71 1388.7,368.71 C 1389.2,368.71 1389.2,368.86 1389.4,369.71 L 1392.1,380.62 z "
           style="fill:#ff0000;fill-opacity:1;stroke-width:0"
           id="path3499" /><path
           d="M 1405.7,363.06 L 1405.6,363.11 L 1405.6,363.16 L 1405.6,363.21 L 1405.6,363.25 L 1405.6,363.3 L 1405.5,363.34 L 1405.5,363.38 L 1405.5,363.42 L 1405.5,363.46 L 1405.5,363.49 L 1405.5,363.53 L 1405.4,363.56 L 1405.4,363.59 L 1405.4,363.62 L 1405.4,363.64 L 1405.3,363.67 L 1405.3,363.69 L 1405.3,363.72 L 1405.3,363.74 L 1405.2,363.76 L 1405.2,363.77 L 1405.2,363.79 L 1405.1,363.8 L 1405.1,363.82 L 1405,363.83 L 1405,363.84 L 1405,363.84 L 1404.9,363.85 L 1404.9,363.86 L 1404.8,363.86 L 1404.7,363.86 L 1404.7,363.86 C 1404,363.86 1403.9,363.62 1403.7,363.06 L 1395.7,342.66 C 1395.3,341.79 1394.7,340.25 1391.6,340.25 L 1391.6,339 C 1392.8,339.11 1394,339.14 1395.2,339.14 C 1396.6,339.14 1399.1,339 1399.3,339 L 1399.3,340.25 C 1397.8,340.25 1396.8,340.95 1396.8,341.93 C 1396.8,342.21 1396.9,342.28 1397,342.62 L 1398.7,346.91 L 1399.2,348.17 L 1403.6,359.5 L 1408.1,348.17 L 1399.2,348.17 L 1398.7,346.91 L 1408.6,346.91 L 1410.6,341.82 C 1410.7,341.65 1410.8,341.41 1410.8,341.23 C 1410.8,340.25 1408.9,340.25 1408,340.25 L 1408,339 C 1409.7,339.07 1411.9,339.14 1413.2,339.14 C 1414.8,339.14 1417.4,339.04 1417.8,339 L 1417.8,340.25 L 1417.1,340.25 C 1414.8,340.25 1414.5,340.61 1414.1,341.58 L 1405.7,363.06 z "
           style="fill:#ff0000;fill-opacity:1;stroke-width:0"
           id="path3501" /><path
           d="M 1436.4,358.45 L 1436.4,358.82 L 1436.4,359.21 L 1436.4,359.6 L 1436.4,360.01 L 1436.3,360.85 L 1436.3,361.73 L 1436.2,362.65 L 1436.1,363.59 L 1435.9,364.57 L 1435.8,365.57 L 1435.6,366.59 L 1435.4,367.63 L 1435.1,368.68 L 1434.8,369.74 L 1434.4,370.8 L 1434,371.87 L 1433.8,372.4 L 1433.6,372.94 L 1433.4,373.47 L 1433.1,374 C 1430.1,380.12 1425.8,383.36 1425.3,383.36 C 1425,383.36 1424.8,383.16 1424.8,382.86 C 1424.8,382.71 1424.8,382.61 1425.8,381.71 C 1430.7,376.79 1433.5,368.86 1433.5,358.45 C 1433.5,349.93 1431.7,341.17 1425.5,334.89 C 1424.8,334.29 1424.8,334.2 1424.8,334.04 C 1424.8,333.75 1425,333.55 1425.3,333.55 C 1425.8,333.55 1430.3,336.93 1433.3,343.26 C 1435.8,348.74 1436.4,354.27 1436.4,358.45 z "
           style="fill:#ff0000;fill-opacity:1;stroke-width:0"
           id="path3503" /></g>    </g>
    <g
       transform="translate(-308.65748,106.41439)"
       style="fill:#0000ff;fill-opacity:1"
       id="g3637">
      <g
         transform="matrix(0.5314961,0,0,-0.5314961,-93.01181,393.30707)"
         style="font-style:normal;font-variant:normal;font-weight:normal;font-stretch:normal;letter-spacing:normal;word-spacing:normal;text-anchor:start;fill:#0000ff;fill-opacity:1;stroke:#000000;stroke-linecap:butt;stroke-linejoin:miter;stroke-miterlimit:10.43299961;stroke-dasharray:none;stroke-dashoffset:0;stroke-opacity:1"
         id="g3639"
         xml:space="preserve"><path
           d="M 1041.8,346.3 L 1042.5,346.59 L 1043.3,346.92 L 1044,347.28 L 1044.7,347.67 L 1045.4,348.09 L 1046.1,348.54 L 1046.8,349.03 L 1047.4,349.53 L 1048.1,350.07 L 1048.7,350.63 L 1049.4,351.22 L 1050,351.83 L 1050.6,352.47 L 1051.1,353.13 L 1051.7,353.81 L 1052.2,354.51 L 1052.7,355.23 L 1053.2,355.96 L 1053.7,356.72 L 1054.1,357.49 L 1054.5,358.28 L 1054.9,359.08 L 1055.3,359.9 L 1055.6,360.73 L 1055.9,361.57 L 1056.1,362.42 L 1056.4,363.29 L 1056.5,364.16 L 1056.7,365.04 L 1056.8,365.93 L 1056.8,366.82 L 1056.9,367.72 C 1056.9,375.74 1051.6,381.12 1044.2,381.12 L 1043.9,379.87 C 1048.8,379.87 1052.5,375.99 1052.5,369.31 C 1052.5,364.33 1049.9,352.68 1041.6,347.99 C 1041.3,349.73 1040.8,353.37 1037.2,353.37 C 1034.6,353.37 1032.1,350.88 1032.1,348.29 L 1033.2,348.29 C 1033.2,350.29 1035.1,352.28 1037.2,352.28 C 1039.3,352.28 1040.2,351.08 1040.2,348.04 C 1040.2,347.3 1040.2,347.25 1039.7,347.05 C 1038.4,346.5 1036.9,346.15 1035.5,346.15 L 1035.5,346.15 C 1034.8,346.15 1033.2,346.15 1033.2,348.29 L 1032.1,348.29 C 1032.1,347.3 1032.4,346.75 1032.4,346.7 L 1032.4,346.7 C 1028.5,348.24 1026.8,352.13 1026.8,356.61 C 1026.8,360.05 1028.1,367.12 1031.9,372.5 C 1035.5,377.58 1040.2,379.87 1043.9,379.87 L 1044.2,381.12 C 1033.4,381.12 1022.4,369.81 1022.4,358.2 C 1022.4,349.93 1028,344.9 1035.2,344.9 C 1036.4,344.9 1038.1,345.1 1040.1,345.65 C 1039.9,342.56 1039.9,342.46 1039.9,341.82 C 1039.9,340.22 1039.9,336.34 1044,336.34 C 1049.9,336.34 1052.3,345.45 1052.3,346 C 1052.3,346.35 1052,346.5 1051.8,346.5 C 1051.4,346.5 1051.3,346.25 1051.2,345.95 C 1050,342.41 1047.1,341.17 1045.4,341.17 C 1043.1,341.17 1042.3,342.51 1041.8,346.3 z "
           style="fill:#0000ff;fill-opacity:1;stroke-width:0"
           id="path3641" /><path
           d="M 1076.6,345.35 L 1075.4,345.35 C 1075.3,344.58 1075,342.52 1074.5,342.17 C 1074.2,341.96 1071.6,341.96 1071.1,341.96 L 1064.7,341.96 C 1068.3,345.21 1069.5,346.18 1071.6,347.82 C 1074.2,349.88 1076.6,352.04 1076.6,355.36 C 1076.6,359.57 1072.9,362.15 1068.4,362.15 C 1064.1,362.15 1061.2,359.12 1061.2,355.91 C 1061.2,354.13 1062.7,353.96 1063,353.96 C 1063.9,353.96 1064.9,354.55 1064.9,355.81 C 1064.9,356.43 1064.7,357.66 1062.8,357.66 C 1063.9,360.13 1066.3,360.9 1067.9,360.9 C 1071.4,360.9 1073.2,358.18 1073.2,355.36 C 1073.2,352.32 1071.1,349.91 1069.9,348.66 L 1061.6,340.36 C 1061.2,340.05 1061.2,339.98 1061.2,339 L 1075.6,339 L 1076.6,345.35 z "
           style="fill:#0000ff;fill-opacity:1;stroke-width:0"
           id="path3643" /><path
           d="M 1129.2,362.29 L 1129.4,362.29 L 1129.5,362.29 L 1129.7,362.3 L 1129.7,362.3 L 1129.8,362.3 L 1129.9,362.31 L 1129.9,362.32 L 1130,362.33 L 1130.1,362.34 L 1130.2,362.36 L 1130.2,362.37 L 1130.3,362.39 L 1130.3,362.41 L 1130.4,362.44 L 1130.5,362.47 L 1130.5,362.5 L 1130.6,362.53 L 1130.6,362.57 L 1130.7,362.61 L 1130.7,362.66 L 1130.8,362.71 L 1130.8,362.74 L 1130.8,362.76 L 1130.8,362.79 L 1130.8,362.82 L 1130.8,362.85 L 1130.8,362.89 L 1130.9,362.92 L 1130.9,362.96 L 1130.9,362.99 L 1130.9,363.03 L 1130.9,363.07 L 1130.9,363.11 L 1130.9,363.15 L 1130.9,363.19 L 1130.9,363.24 L 1130.9,363.29 C 1130.9,364.28 1130,364.28 1129.3,364.28 L 1099.4,364.28 C 1098.7,364.28 1097.8,364.28 1097.8,363.29 C 1097.8,362.29 1098.7,362.29 1099.5,362.29 L 1129.2,362.29 z "
           style="fill:#0000ff;fill-opacity:1;stroke-width:0"
           id="path3645" /><path
           d="M 1129.3,352.62 L 1129.4,352.63 L 1129.5,352.63 L 1129.7,352.63 L 1129.8,352.64 L 1129.8,352.64 L 1129.9,352.65 L 1130,352.66 L 1130,352.67 L 1130.1,352.68 L 1130.2,352.69 L 1130.2,352.71 L 1130.3,352.73 L 1130.4,352.75 L 1130.4,352.77 L 1130.5,352.8 L 1130.5,352.83 L 1130.6,352.87 L 1130.6,352.91 L 1130.7,352.95 L 1130.7,352.99 L 1130.7,353.02 L 1130.8,353.05 L 1130.8,353.07 L 1130.8,353.1 L 1130.8,353.13 L 1130.8,353.16 L 1130.8,353.19 L 1130.8,353.22 L 1130.9,353.26 L 1130.9,353.29 L 1130.9,353.33 L 1130.9,353.37 L 1130.9,353.41 L 1130.9,353.45 L 1130.9,353.49 L 1130.9,353.53 L 1130.9,353.58 L 1130.9,353.62 C 1130.9,354.62 1130,354.62 1129.2,354.62 L 1099.5,354.62 C 1098.7,354.62 1097.8,354.62 1097.8,353.62 C 1097.8,352.62 1098.7,352.62 1099.4,352.62 L 1129.3,352.62 z "
           style="fill:#0000ff;fill-opacity:1;stroke-width:0"
           id="path3647" /><path
           d="M 1180.9,357.46 L 1181,357.46 L 1181.1,357.46 L 1181.2,357.46 L 1181.3,357.46 L 1181.4,357.47 L 1181.5,357.47 L 1181.5,357.48 L 1181.6,357.49 L 1181.7,357.5 L 1181.8,357.51 L 1181.8,357.52 L 1181.9,357.54 L 1181.9,357.56 L 1182,357.58 L 1182.1,357.61 L 1182.1,357.63 L 1182.2,357.67 L 1182.2,357.7 L 1182.3,357.74 L 1182.3,357.78 L 1182.4,357.83 L 1182.4,357.85 L 1182.4,357.88 L 1182.4,357.9 L 1182.4,357.93 L 1182.5,357.96 L 1182.5,357.99 L 1182.5,358.02 L 1182.5,358.06 L 1182.5,358.09 L 1182.5,358.12 L 1182.5,358.16 L 1182.5,358.2 L 1182.6,358.24 L 1182.6,358.28 L 1182.6,358.32 L 1182.6,358.36 L 1182.6,358.41 L 1182.6,358.45 C 1182.6,359.45 1181.6,359.45 1180.9,359.45 L 1153.8,359.45 C 1153.1,359.45 1152.1,359.45 1152.1,358.45 C 1152.1,357.46 1153.1,357.46 1153.8,357.46 L 1180.9,357.46 z "
           style="fill:#0000ff;fill-opacity:1;stroke-width:0"
           id="path3649" /><path
           d="M 1207.3,376.24 L 1207.3,376.37 L 1207.3,376.49 L 1207.4,376.6 L 1207.4,376.71 L 1207.4,376.82 L 1207.5,376.91 L 1207.5,377.01 L 1207.5,377.09 L 1207.5,377.18 L 1207.6,377.25 L 1207.6,377.33 L 1207.6,377.39 L 1207.7,377.46 L 1207.7,377.52 L 1207.7,377.57 L 1207.7,377.63 L 1207.8,377.67 L 1207.8,377.72 L 1207.8,377.76 L 1207.9,377.8 L 1207.9,377.83 L 1208,377.87 L 1208,377.9 L 1208,377.92 L 1208.1,377.95 L 1208.1,377.97 L 1208.2,377.99 L 1208.2,378.01 L 1208.3,378.03 L 1208.3,378.05 L 1208.4,378.06 L 1208.4,378.08 C 1208.9,378.18 1210.5,378.18 1211.6,378.18 C 1216.6,378.18 1218.8,377.98 1218.8,374.09 C 1218.8,373.35 1218.6,371.41 1218.4,370.11 C 1218.4,369.91 1218.3,369.31 1218.3,369.16 C 1218.3,368.86 1218.4,368.52 1218.9,368.52 C 1219.4,368.52 1219.5,368.91 1219.6,369.66 L 1221,378.33 C 1221,378.53 1221.1,379.03 1221.1,379.18 C 1221.1,379.72 1220.6,379.72 1219.7,379.72 L 1192.1,379.72 C 1190.9,379.72 1190.8,379.67 1190.5,378.73 L 1187.5,369.96 C 1187.4,369.86 1187.2,369.16 1187.2,369.06 C 1187.2,368.77 1187.4,368.52 1187.8,368.52 C 1188.3,368.52 1188.3,368.77 1188.6,369.56 C 1191.3,377.28 1192.6,378.18 1200,378.18 L 1201.9,378.18 C 1203.3,378.18 1203.3,377.98 1203.3,377.58 C 1203.3,377.28 1203.2,376.68 1203.1,376.54 L 1196.5,349.93 C 1196,348.09 1195.9,347.54 1190.5,347.54 C 1188.7,347.54 1188.4,347.54 1188.4,346.6 C 1188.4,346 1189,346 1189.3,346 C 1190.6,346 1192,346.1 1193.4,346.1 C 1194.8,346.1 1196.2,346.15 1197.6,346.15 C 1199,346.15 1200.4,346.1 1201.7,346.1 C 1203.2,346.1 1204.7,346 1206.1,346 C 1206.6,346 1207.2,346 1207.2,347 C 1207.2,347.54 1206.8,347.54 1205.5,347.54 C 1204.2,347.54 1203.6,347.54 1202.3,347.64 C 1200.8,347.79 1200.4,347.94 1200.4,348.74 C 1200.4,348.79 1200.4,349.04 1200.6,349.79 L 1207.3,376.24 z "
           style="fill:#0000ff;fill-opacity:1;stroke-width:0"
           id="path3651" /><path
           d="M 1232.6,345.35 L 1231.4,345.35 C 1231.3,344.58 1231,342.52 1230.5,342.17 C 1230.2,341.96 1227.6,341.96 1227.1,341.96 L 1220.7,341.96 C 1224.3,345.21 1225.5,346.18 1227.6,347.82 C 1230.2,349.88 1232.6,352.04 1232.6,355.36 C 1232.6,359.57 1228.9,362.15 1224.4,362.15 C 1220.1,362.15 1217.2,359.12 1217.2,355.91 C 1217.2,354.13 1218.7,353.96 1219,353.96 C 1219.9,353.96 1220.9,354.55 1220.9,355.81 C 1220.9,356.43 1220.7,357.66 1218.8,357.66 C 1219.9,360.13 1222.3,360.9 1223.9,360.9 C 1227.4,360.9 1229.2,358.18 1229.2,355.36 C 1229.2,352.32 1227.1,349.91 1225.9,348.66 L 1217.6,340.36 C 1217.2,340.05 1217.2,339.98 1217.2,339 L 1231.6,339 L 1232.6,345.35 z "
           style="fill:#0000ff;fill-opacity:1;stroke-width:0"
           id="path3653" /><path
           d="M 1254.5,334.04 L 1254.5,334.07 L 1254.5,334.1 L 1254.5,334.11 L 1254.5,334.13 L 1254.5,334.14 L 1254.5,334.16 L 1254.5,334.18 L 1254.5,334.19 L 1254.5,334.21 L 1254.4,334.23 L 1254.4,334.26 L 1254.4,334.28 L 1254.4,334.3 L 1254.4,334.33 L 1254.4,334.36 L 1254.3,334.39 L 1254.3,334.42 L 1254.3,334.46 L 1254.3,334.48 L 1254.2,334.5 L 1254.2,334.52 L 1254.2,334.54 L 1254.2,334.56 L 1254.2,334.59 L 1254.2,334.61 L 1254.1,334.63 L 1254.1,334.66 L 1254.1,334.68 L 1254.1,334.71 L 1254,334.74 L 1254,334.77 L 1254,334.8 L 1254,334.83 L 1253.9,334.86 L 1253.9,334.89 L 1253.9,334.92 L 1253.8,334.96 L 1253.8,334.99 L 1253.8,335.03 L 1253.7,335.06 L 1253.7,335.1 L 1253.6,335.14 C 1247.4,341.42 1245.8,350.83 1245.8,358.45 C 1245.8,367.12 1247.7,375.79 1253.8,382.02 C 1254.5,382.61 1254.5,382.71 1254.5,382.86 C 1254.5,383.21 1254.3,383.36 1254,383.36 C 1253.5,383.36 1249,379.97 1246.1,373.64 C 1243.5,368.17 1242.9,362.64 1242.9,358.45 C 1242.9,354.57 1243.5,348.54 1246.2,342.91 C 1249.2,336.79 1253.5,333.55 1254,333.55 C 1254.3,333.55 1254.5,333.7 1254.5,334.04 z "
           style="fill:#0000ff;fill-opacity:1;stroke-width:0"
           id="path3655" /><path
           d="M 1289.1,380.62 L 1289.1,380.64 L 1289.1,380.65 L 1289.1,380.67 L 1289.1,380.69 L 1289.1,380.7 L 1289.1,380.72 L 1289.1,380.74 L 1289.1,380.76 L 1289.1,380.78 L 1289.1,380.8 L 1289.1,380.82 L 1289.1,380.84 L 1289.1,380.86 L 1289.1,380.88 L 1289,380.9 L 1289,380.92 L 1289,380.94 L 1289,380.96 L 1289,380.98 L 1289,381 L 1288.9,381.02 L 1288.9,381.03 L 1288.9,381.05 L 1288.9,381.06 L 1288.8,381.07 L 1288.8,381.08 L 1288.8,381.08 L 1288.8,381.09 L 1288.8,381.09 L 1288.7,381.1 L 1288.7,381.1 L 1288.7,381.11 L 1288.7,381.11 L 1288.7,381.11 L 1288.7,381.11 L 1288.6,381.11 L 1288.6,381.12 L 1288.6,381.12 L 1288.6,381.12 C 1288.3,381.12 1288.3,381.07 1287.7,380.37 L 1285.3,377.53 C 1284,379.87 1281.4,381.12 1278.2,381.12 C 1271.8,381.12 1265.9,375.39 1265.9,369.36 C 1265.9,365.33 1268.5,363.04 1271.1,362.29 L 1276.4,360.89 C 1278.2,360.45 1281,359.7 1281,355.61 C 1281,351.13 1276.9,346.45 1272,346.45 C 1268.8,346.45 1263.3,347.54 1263.3,353.72 C 1263.3,354.92 1263.5,356.11 1263.6,356.41 C 1263.6,356.61 1263.7,356.66 1263.7,356.76 C 1263.7,357.26 1263.3,357.31 1263.1,357.31 C 1262.8,357.31 1262.7,357.26 1262.6,357.11 C 1262.4,356.91 1259.6,345.55 1259.6,345.4 C 1259.6,345.1 1259.8,344.9 1260.1,344.9 C 1260.4,344.9 1260.4,344.95 1261,345.65 L 1263.5,348.49 C 1265.6,345.6 1269,344.9 1271.9,344.9 C 1278.7,344.9 1284.6,351.53 1284.6,357.71 C 1284.6,361.14 1282.8,362.84 1282.1,363.54 C 1281,364.68 1280.2,364.88 1275.8,366.02 C 1274.7,366.32 1272.9,366.82 1272.4,366.92 C 1271.1,367.37 1269.4,368.81 1269.4,371.45 C 1269.4,375.49 1273.4,379.72 1278.1,379.72 C 1282.2,379.72 1285.3,377.58 1285.3,372 C 1285.3,370.41 1285.1,369.51 1285.1,369.21 C 1285.1,369.16 1285.1,368.71 1285.7,368.71 C 1286.2,368.71 1286.2,368.86 1286.4,369.71 L 1289.1,380.62 z "
           style="fill:#0000ff;fill-opacity:1;stroke-width:0"
           id="path3657" /><path
           d="M 1290.1,362.82 L 1290.1,361.56 L 1290.9,361.56 C 1293.6,361.56 1293.7,361.21 1293.7,359.99 L 1293.7,341.82 C 1293.7,340.64 1293.6,340.25 1290.9,340.25 L 1290.1,340.25 L 1290.1,339 L 1304.9,339 C 1309.8,339 1313.4,342.07 1313.4,345.38 C 1313.4,348.41 1310.3,351 1306.1,351.45 C 1309.5,352.07 1312.3,354.2 1312.3,356.89 C 1312.3,360.03 1308.7,362.82 1303.8,362.82 L 1303.6,361.56 C 1307,361.56 1308.8,359.09 1308.8,356.89 C 1308.8,354.41 1306.5,351.87 1302.5,351.87 L 1296.8,351.87 L 1296.8,350.89 L 1304.2,350.89 C 1307.9,350.89 1309.8,347.89 1309.8,345.45 C 1309.8,342.87 1307.5,340.25 1303.7,340.25 L 1298.4,340.25 C 1296.8,340.25 1296.8,340.54 1296.8,341.61 L 1296.8,350.89 L 1296.8,351.87 L 1296.8,360.2 C 1296.8,361.28 1296.8,361.56 1298.4,361.56 L 1303.6,361.56 L 1303.8,362.82 L 1290.1,362.82 z "
           style="fill:#0000ff;fill-opacity:1;stroke-width:0"
           id="path3659" /><path
           d="M 1361.9,357.46 L 1362,357.46 L 1362.1,357.46 L 1362.2,357.46 L 1362.3,357.46 L 1362.4,357.47 L 1362.5,357.47 L 1362.5,357.48 L 1362.6,357.49 L 1362.7,357.5 L 1362.8,357.51 L 1362.8,357.52 L 1362.9,357.54 L 1362.9,357.56 L 1363,357.58 L 1363.1,357.61 L 1363.1,357.63 L 1363.2,357.67 L 1363.2,357.7 L 1363.3,357.74 L 1363.3,357.78 L 1363.4,357.83 L 1363.4,357.85 L 1363.4,357.88 L 1363.4,357.9 L 1363.4,357.93 L 1363.5,357.96 L 1363.5,357.99 L 1363.5,358.02 L 1363.5,358.06 L 1363.5,358.09 L 1363.5,358.12 L 1363.5,358.16 L 1363.5,358.2 L 1363.6,358.24 L 1363.6,358.28 L 1363.6,358.32 L 1363.6,358.36 L 1363.6,358.41 L 1363.6,358.45 C 1363.6,359.45 1362.6,359.45 1361.9,359.45 L 1334.8,359.45 C 1334.1,359.45 1333.1,359.45 1333.1,358.45 C 1333.1,357.46 1334.1,357.46 1334.8,357.46 L 1361.9,357.46 z "
           style="fill:#0000ff;fill-opacity:1;stroke-width:0"
           id="path3661" /><path
           d="M 1411.1,380.62 L 1411.1,380.64 L 1411.1,380.65 L 1411.1,380.67 L 1411.1,380.69 L 1411.1,380.7 L 1411.1,380.72 L 1411.1,380.74 L 1411.1,380.76 L 1411.1,380.78 L 1411.1,380.8 L 1411.1,380.82 L 1411.1,380.84 L 1411.1,380.86 L 1411.1,380.88 L 1411,380.9 L 1411,380.92 L 1411,380.94 L 1411,380.96 L 1411,380.98 L 1411,381 L 1410.9,381.02 L 1410.9,381.03 L 1410.9,381.05 L 1410.9,381.06 L 1410.8,381.07 L 1410.8,381.08 L 1410.8,381.08 L 1410.8,381.09 L 1410.8,381.09 L 1410.7,381.1 L 1410.7,381.1 L 1410.7,381.11 L 1410.7,381.11 L 1410.7,381.11 L 1410.7,381.11 L 1410.6,381.11 L 1410.6,381.12 L 1410.6,381.12 L 1410.6,381.12 C 1410.3,381.12 1410.3,381.07 1409.7,380.37 L 1407.3,377.53 C 1406,379.87 1403.4,381.12 1400.2,381.12 C 1393.8,381.12 1387.9,375.39 1387.9,369.36 C 1387.9,365.33 1390.5,363.04 1393.1,362.29 L 1398.4,360.89 C 1400.2,360.45 1403,359.7 1403,355.61 C 1403,351.13 1398.9,346.45 1394,346.45 C 1390.8,346.45 1385.3,347.54 1385.3,353.72 C 1385.3,354.92 1385.5,356.11 1385.6,356.41 C 1385.6,356.61 1385.7,356.66 1385.7,356.76 C 1385.7,357.26 1385.3,357.31 1385.1,357.31 C 1384.8,357.31 1384.7,357.26 1384.6,357.11 C 1384.4,356.91 1381.6,345.55 1381.6,345.4 C 1381.6,345.1 1381.8,344.9 1382.1,344.9 C 1382.4,344.9 1382.4,344.95 1383,345.65 L 1385.5,348.49 C 1387.6,345.6 1391,344.9 1393.9,344.9 C 1400.7,344.9 1406.6,351.53 1406.6,357.71 C 1406.6,361.14 1404.8,362.84 1404.1,363.54 C 1403,364.68 1402.2,364.88 1397.8,366.02 C 1396.7,366.32 1394.9,366.82 1394.4,366.92 C 1393.1,367.37 1391.4,368.81 1391.4,371.45 C 1391.4,375.49 1395.4,379.72 1400.1,379.72 C 1404.2,379.72 1407.3,377.58 1407.3,372 C 1407.3,370.41 1407.1,369.51 1407.1,369.21 C 1407.1,369.16 1407.1,368.71 1407.7,368.71 C 1408.2,368.71 1408.2,368.86 1408.4,369.71 L 1411.1,380.62 z "
           style="fill:#0000ff;fill-opacity:1;stroke-width:0"
           id="path3663" /><path
           d="M 1425.7,363.06 L 1425.6,363.11 L 1425.6,363.16 L 1425.6,363.21 L 1425.6,363.25 L 1425.6,363.3 L 1425.5,363.34 L 1425.5,363.38 L 1425.5,363.42 L 1425.5,363.46 L 1425.5,363.49 L 1425.5,363.53 L 1425.4,363.56 L 1425.4,363.59 L 1425.4,363.62 L 1425.4,363.64 L 1425.3,363.67 L 1425.3,363.69 L 1425.3,363.72 L 1425.3,363.74 L 1425.2,363.76 L 1425.2,363.77 L 1425.2,363.79 L 1425.1,363.8 L 1425.1,363.82 L 1425,363.83 L 1425,363.84 L 1425,363.84 L 1424.9,363.85 L 1424.9,363.86 L 1424.8,363.86 L 1424.7,363.86 L 1424.7,363.86 C 1424,363.86 1423.9,363.62 1423.7,363.06 L 1415.7,342.66 C 1415.3,341.79 1414.7,340.25 1411.6,340.25 L 1411.6,339 C 1412.8,339.11 1414,339.14 1415.2,339.14 C 1416.6,339.14 1419.1,339 1419.3,339 L 1419.3,340.25 C 1417.8,340.25 1416.8,340.95 1416.8,341.93 C 1416.8,342.21 1416.9,342.28 1417,342.62 L 1418.7,346.91 L 1419.2,348.17 L 1423.6,359.5 L 1428.1,348.17 L 1419.2,348.17 L 1418.7,346.91 L 1428.6,346.91 L 1430.6,341.82 C 1430.7,341.65 1430.8,341.41 1430.8,341.23 C 1430.8,340.25 1428.9,340.25 1428,340.25 L 1428,339 C 1429.7,339.07 1431.9,339.14 1433.2,339.14 C 1434.8,339.14 1437.4,339.04 1437.8,339 L 1437.8,340.25 L 1437.1,340.25 C 1434.8,340.25 1434.5,340.61 1434.1,341.58 L 1425.7,363.06 z "
           style="fill:#0000ff;fill-opacity:1;stroke-width:0"
           id="path3665" /><path
           d="M 1455.4,358.45 L 1455.4,358.82 L 1455.4,359.21 L 1455.4,359.6 L 1455.4,360.01 L 1455.3,360.85 L 1455.3,361.73 L 1455.2,362.65 L 1455.1,363.59 L 1454.9,364.57 L 1454.8,365.57 L 1454.6,366.59 L 1454.4,367.63 L 1454.1,368.68 L 1453.8,369.74 L 1453.4,370.8 L 1453,371.87 L 1452.8,372.4 L 1452.6,372.94 L 1452.4,373.47 L 1452.1,374 C 1449.1,380.12 1444.8,383.36 1444.3,383.36 C 1444,383.36 1443.8,383.16 1443.8,382.86 C 1443.8,382.71 1443.8,382.61 1444.8,381.71 C 1449.7,376.79 1452.5,368.86 1452.5,358.45 C 1452.5,349.93 1450.7,341.17 1444.5,334.89 C 1443.8,334.29 1443.8,334.2 1443.8,334.04 C 1443.8,333.75 1444,333.55 1444.3,333.55 C 1444.8,333.55 1449.3,336.93 1452.3,343.26 C 1454.8,348.74 1455.4,354.27 1455.4,358.45 z "
           style="fill:#0000ff;fill-opacity:1;stroke-width:0"
           id="path3667" /></g>    </g>
    <g
       transform="translate(-323.69881,-26.748408)"
       id="g3829">
      <g
         transform="matrix(0.5314961,0,0,-0.5314961,-93.01181,393.30707)"
         style="font-style:normal;font-variant:normal;font-weight:normal;font-stretch:normal;letter-spacing:normal;word-spacing:normal;text-anchor:start;fill:none;fill-opacity:1;stroke:#000000;stroke-linecap:butt;stroke-linejoin:miter;stroke-miterlimit:10.43299961;stroke-dasharray:none;stroke-dashoffset:0;stroke-opacity:1"
         id="g3831"
         xml:space="preserve"><path
           d="M 1133.7,374.24 L 1133.9,374.65 L 1134.1,375.04 L 1134.4,375.43 L 1134.6,375.8 L 1134.8,375.97 L 1134.9,376.15 L 1135,376.32 L 1135.2,376.48 L 1135.3,376.64 L 1135.5,376.8 L 1135.6,376.95 L 1135.8,377.09 L 1135.9,377.23 L 1136.1,377.36 L 1136.3,377.49 L 1136.4,377.61 L 1136.6,377.72 L 1136.8,377.83 L 1137,377.93 L 1137.2,378.02 L 1137.5,378.11 L 1137.7,378.18 L 1137.9,378.25 L 1138.2,378.31 L 1138.4,378.37 L 1138.7,378.41 L 1139,378.45 L 1139.3,378.48 C 1139.7,378.53 1140.2,378.53 1140.2,379.47 C 1140.2,379.67 1140,380.02 1139.6,380.02 C 1138.4,380.02 1137,379.87 1135.8,379.87 C 1134.1,379.87 1132.2,380.02 1130.6,380.02 C 1130.3,380.02 1129.6,380.02 1129.6,379.07 C 1129.6,378.53 1130.1,378.48 1130.4,378.48 C 1131.6,378.43 1133.3,378.03 1133.3,376.54 C 1133.3,375.99 1133.1,375.59 1132.7,374.89 L 1119.2,351.43 L 1117.4,376.14 C 1117.3,377.13 1117.2,378.43 1120.9,378.48 C 1121.7,378.48 1122.2,378.48 1122.2,379.47 C 1122.2,379.97 1121.7,380.02 1121.5,380.02 C 1119.5,380.02 1117.4,379.87 1115.4,379.87 C 1114.2,379.87 1111.3,380.02 1110.2,380.02 C 1109.9,380.02 1109.2,380.02 1109.2,379.03 C 1109.2,378.48 1109.7,378.48 1110.4,378.48 C 1112.6,378.48 1113,378.18 1113.1,377.23 L 1113.4,373.4 L 1100.8,351.43 L 1098.9,376.68 C 1098.9,377.28 1098.9,378.43 1102.6,378.48 C 1103.1,378.48 1103.7,378.48 1103.7,379.47 C 1103.7,380.02 1103.1,380.02 1103,380.02 C 1101,380.02 1098.9,379.87 1096.9,379.87 C 1095.1,379.87 1093.3,380.02 1091.6,380.02 C 1091.4,380.02 1090.7,380.02 1090.7,379.07 C 1090.7,378.48 1091.2,378.48 1092,378.48 C 1094.5,378.48 1094.5,378.03 1094.6,376.64 L 1096.9,346.2 C 1096.9,345.3 1097,344.9 1097.7,344.9 C 1098.3,344.9 1098.4,345.2 1098.9,345.95 L 1113.5,371.36 L 1115.3,346.2 C 1115.4,345.15 1115.6,344.9 1116.1,344.9 C 1116.8,344.9 1117.1,345.4 1117.3,345.85 L 1133.7,374.24 z "
           style="fill:#000000;stroke-width:0"
           id="path3833" /><path
           d="M 1190.2,362.29 L 1190.4,362.29 L 1190.5,362.29 L 1190.7,362.3 L 1190.7,362.3 L 1190.8,362.3 L 1190.9,362.31 L 1190.9,362.32 L 1191,362.33 L 1191.1,362.34 L 1191.2,362.36 L 1191.2,362.37 L 1191.3,362.39 L 1191.3,362.41 L 1191.4,362.44 L 1191.5,362.47 L 1191.5,362.5 L 1191.6,362.53 L 1191.6,362.57 L 1191.7,362.61 L 1191.7,362.66 L 1191.8,362.71 L 1191.8,362.74 L 1191.8,362.76 L 1191.8,362.79 L 1191.8,362.82 L 1191.8,362.85 L 1191.8,362.89 L 1191.9,362.92 L 1191.9,362.96 L 1191.9,362.99 L 1191.9,363.03 L 1191.9,363.07 L 1191.9,363.11 L 1191.9,363.15 L 1191.9,363.19 L 1191.9,363.24 L 1191.9,363.29 C 1191.9,364.28 1191,364.28 1190.3,364.28 L 1160.4,364.28 C 1159.7,364.28 1158.8,364.28 1158.8,363.29 C 1158.8,362.29 1159.7,362.29 1160.5,362.29 L 1190.2,362.29 z "
           style="fill:#000000;stroke-width:0"
           id="path3835" /><path
           d="M 1190.3,352.62 L 1190.4,352.63 L 1190.5,352.63 L 1190.7,352.63 L 1190.8,352.64 L 1190.8,352.64 L 1190.9,352.65 L 1191,352.66 L 1191,352.67 L 1191.1,352.68 L 1191.2,352.69 L 1191.2,352.71 L 1191.3,352.73 L 1191.4,352.75 L 1191.4,352.77 L 1191.5,352.8 L 1191.5,352.83 L 1191.6,352.87 L 1191.6,352.91 L 1191.7,352.95 L 1191.7,352.99 L 1191.7,353.02 L 1191.8,353.05 L 1191.8,353.07 L 1191.8,353.1 L 1191.8,353.13 L 1191.8,353.16 L 1191.8,353.19 L 1191.8,353.22 L 1191.9,353.26 L 1191.9,353.29 L 1191.9,353.33 L 1191.9,353.37 L 1191.9,353.41 L 1191.9,353.45 L 1191.9,353.49 L 1191.9,353.53 L 1191.9,353.58 L 1191.9,353.62 C 1191.9,354.62 1191,354.62 1190.2,354.62 L 1160.5,354.62 C 1159.7,354.62 1158.8,354.62 1158.8,353.62 C 1158.8,352.62 1159.7,352.62 1160.4,352.62 L 1190.3,352.62 z "
           style="fill:#000000;stroke-width:0"
           id="path3837" /><path
           d="M 1229.8,346.3 L 1230.5,346.59 L 1231.3,346.92 L 1232,347.28 L 1232.7,347.67 L 1233.4,348.09 L 1234.1,348.54 L 1234.8,349.03 L 1235.4,349.53 L 1236.1,350.07 L 1236.7,350.63 L 1237.4,351.22 L 1238,351.83 L 1238.6,352.47 L 1239.1,353.13 L 1239.7,353.81 L 1240.2,354.51 L 1240.7,355.23 L 1241.2,355.96 L 1241.7,356.72 L 1242.1,357.49 L 1242.5,358.28 L 1242.9,359.08 L 1243.3,359.9 L 1243.6,360.73 L 1243.9,361.57 L 1244.1,362.42 L 1244.4,363.29 L 1244.5,364.16 L 1244.7,365.04 L 1244.8,365.93 L 1244.8,366.82 L 1244.9,367.72 C 1244.9,375.74 1239.6,381.12 1232.2,381.12 L 1231.9,379.87 C 1236.8,379.87 1240.5,375.99 1240.5,369.31 C 1240.5,364.33 1237.9,352.68 1229.6,347.99 C 1229.3,349.73 1228.8,353.37 1225.2,353.37 C 1222.6,353.37 1220.1,350.88 1220.1,348.29 L 1221.2,348.29 C 1221.2,350.29 1223.1,352.28 1225.2,352.28 C 1227.3,352.28 1228.2,351.08 1228.2,348.04 C 1228.2,347.3 1228.2,347.25 1227.7,347.05 C 1226.4,346.5 1224.9,346.15 1223.5,346.15 L 1223.5,346.15 C 1222.8,346.15 1221.2,346.15 1221.2,348.29 L 1220.1,348.29 C 1220.1,347.3 1220.4,346.75 1220.4,346.7 L 1220.4,346.7 C 1216.5,348.24 1214.8,352.13 1214.8,356.61 C 1214.8,360.05 1216.1,367.12 1219.9,372.5 C 1223.5,377.58 1228.2,379.87 1231.9,379.87 L 1232.2,381.12 C 1221.4,381.12 1210.4,369.81 1210.4,358.2 C 1210.4,349.93 1216,344.9 1223.2,344.9 C 1224.4,344.9 1226.1,345.1 1228.1,345.65 C 1227.9,342.56 1227.9,342.46 1227.9,341.82 C 1227.9,340.22 1227.9,336.34 1232,336.34 C 1237.9,336.34 1240.3,345.45 1240.3,346 C 1240.3,346.35 1240,346.5 1239.8,346.5 C 1239.4,346.5 1239.3,346.25 1239.2,345.95 C 1238,342.41 1235.1,341.17 1233.4,341.17 C 1231.1,341.17 1230.3,342.51 1229.8,346.3 z "
           style="fill:#000000;stroke-width:0"
           id="path3839" /><path
           d="M 1259.7,361.18 L 1259.7,361.22 L 1259.7,361.26 L 1259.7,361.3 L 1259.7,361.34 L 1259.7,361.38 L 1259.7,361.42 L 1259.7,361.45 L 1259.7,361.49 L 1259.7,361.52 L 1259.7,361.55 L 1259.7,361.59 L 1259.7,361.62 L 1259.7,361.64 L 1259.7,361.67 L 1259.7,361.7 L 1259.7,361.73 L 1259.6,361.75 L 1259.6,361.77 L 1259.6,361.82 L 1259.6,361.86 L 1259.6,361.9 L 1259.6,361.93 L 1259.6,361.96 L 1259.5,361.99 L 1259.5,362.02 L 1259.5,362.04 L 1259.5,362.06 L 1259.4,362.08 L 1259.4,362.09 L 1259.4,362.1 L 1259.3,362.12 L 1259.3,362.12 L 1259.2,362.13 L 1259.2,362.13 L 1259.2,362.14 L 1259.2,362.14 L 1259.1,362.14 L 1259.1,362.14 L 1259.1,362.14 L 1259,362.15 L 1259,362.15 L 1259,362.15 L 1258.9,362.15 L 1258.9,362.15 L 1258.9,362.15 L 1258.8,362.15 L 1258.8,362.15 L 1258.7,362.15 L 1258.7,362.15 L 1258.6,362.15 C 1256.4,359.96 1253.2,359.92 1251.8,359.92 L 1251.8,358.67 C 1252.6,358.67 1254.9,358.67 1256.9,359.64 L 1256.9,341.86 C 1256.9,340.71 1256.9,340.25 1253.4,340.25 L 1252,340.25 L 1252,339 C 1252.7,339.04 1257,339.14 1258.2,339.14 C 1259.3,339.14 1263.7,339.04 1264.5,339 L 1264.5,340.25 L 1263.2,340.25 C 1259.7,340.25 1259.7,340.71 1259.7,341.86 L 1259.7,361.18 z "
           style="fill:#000000;stroke-width:0"
           id="path3841" /><path
           d="M 1301.4,357.46 L 1315.3,357.46 C 1316,357.46 1316.9,357.46 1316.9,358.45 C 1316.9,359.45 1316,359.45 1315.3,359.45 L 1301.4,359.45 L 1301.4,373.4 C 1301.4,374.09 1301.4,375.04 1300.4,375.04 C 1299.4,375.04 1299.4,374.09 1299.4,373.4 L 1299.4,359.45 L 1285.4,359.45 C 1284.7,359.45 1283.8,359.45 1283.8,358.45 C 1283.8,357.46 1284.7,357.46 1285.4,357.46 L 1299.4,357.46 L 1299.4,343.51 C 1299.4,342.81 1299.4,341.87 1300.4,341.87 C 1301.4,341.87 1301.4,342.81 1301.4,343.51 L 1301.4,357.46 z "
           style="fill:#000000;stroke-width:0"
           id="path3843" /><path
           d="M 1352.8,346.3 L 1353.5,346.59 L 1354.3,346.92 L 1355,347.28 L 1355.7,347.67 L 1356.4,348.09 L 1357.1,348.54 L 1357.8,349.03 L 1358.4,349.53 L 1359.1,350.07 L 1359.7,350.63 L 1360.4,351.22 L 1361,351.83 L 1361.6,352.47 L 1362.1,353.13 L 1362.7,353.81 L 1363.2,354.51 L 1363.7,355.23 L 1364.2,355.96 L 1364.7,356.72 L 1365.1,357.49 L 1365.5,358.28 L 1365.9,359.08 L 1366.3,359.9 L 1366.6,360.73 L 1366.9,361.57 L 1367.1,362.42 L 1367.4,363.29 L 1367.5,364.16 L 1367.7,365.04 L 1367.8,365.93 L 1367.8,366.82 L 1367.9,367.72 C 1367.9,375.74 1362.6,381.12 1355.2,381.12 L 1354.9,379.87 C 1359.8,379.87 1363.5,375.99 1363.5,369.31 C 1363.5,364.33 1360.9,352.68 1352.6,347.99 C 1352.3,349.73 1351.8,353.37 1348.2,353.37 C 1345.6,353.37 1343.1,350.88 1343.1,348.29 L 1344.2,348.29 C 1344.2,350.29 1346.1,352.28 1348.2,352.28 C 1350.3,352.28 1351.2,351.08 1351.2,348.04 C 1351.2,347.3 1351.2,347.25 1350.7,347.05 C 1349.4,346.5 1347.9,346.15 1346.5,346.15 L 1346.5,346.15 C 1345.8,346.15 1344.2,346.15 1344.2,348.29 L 1343.1,348.29 C 1343.1,347.3 1343.4,346.75 1343.4,346.7 L 1343.4,346.7 C 1339.5,348.24 1337.8,352.13 1337.8,356.61 C 1337.8,360.05 1339.1,367.12 1342.9,372.5 C 1346.5,377.58 1351.2,379.87 1354.9,379.87 L 1355.2,381.12 C 1344.4,381.12 1333.4,369.81 1333.4,358.2 C 1333.4,349.93 1339,344.9 1346.2,344.9 C 1347.4,344.9 1349.1,345.1 1351.1,345.65 C 1350.9,342.56 1350.9,342.46 1350.9,341.82 C 1350.9,340.22 1350.9,336.34 1355,336.34 C 1360.9,336.34 1363.3,345.45 1363.3,346 C 1363.3,346.35 1363,346.5 1362.8,346.5 C 1362.4,346.5 1362.3,346.25 1362.2,345.95 C 1361,342.41 1358.1,341.17 1356.4,341.17 C 1354.1,341.17 1353.3,342.51 1352.8,346.3 z "
           style="fill:#000000;stroke-width:0"
           id="path3845" /><path
           d="M 1387.6,345.35 L 1386.4,345.35 C 1386.3,344.58 1386,342.52 1385.5,342.17 C 1385.2,341.96 1382.6,341.96 1382.1,341.96 L 1375.7,341.96 C 1379.3,345.21 1380.5,346.18 1382.6,347.82 C 1385.2,349.88 1387.6,352.04 1387.6,355.36 C 1387.6,359.57 1383.9,362.15 1379.4,362.15 C 1375.1,362.15 1372.2,359.12 1372.2,355.91 C 1372.2,354.13 1373.7,353.96 1374,353.96 C 1374.9,353.96 1375.9,354.55 1375.9,355.81 C 1375.9,356.43 1375.7,357.66 1373.8,357.66 C 1374.9,360.13 1377.3,360.9 1378.9,360.9 C 1382.4,360.9 1384.2,358.18 1384.2,355.36 C 1384.2,352.32 1382.1,349.91 1380.9,348.66 L 1372.6,340.36 C 1372.2,340.05 1372.2,339.98 1372.2,339 L 1386.6,339 L 1387.6,345.35 z "
           style="fill:#000000;stroke-width:0"
           id="path3847" /></g>    </g>
    <path
       d="M 106.29921,265.74803 L 106.29921,336.61417"
       style="fill:none;fill-rule:evenodd;stroke:#000000;stroke-width:1;stroke-linecap:butt;stroke-linejoin:miter;stroke-miterlimit:4;stroke-dasharray:3, 3;stroke-dashoffset:0;stroke-opacity:1"
       id="path3938" />
    <path
       d="M 389.76378,265.74803 L 389.76378,336.61417"
       style="fill:none;fill-rule:evenodd;stroke:#000000;stroke-width:1;stroke-linecap:butt;stroke-linejoin:miter;stroke-miterlimit:4;stroke-dasharray:3, 3;stroke-dashoffset:0;stroke-opacity:1"
       id="path3940" />
    <g
       transform="translate(-452.72839,152.95751)"
       id="g4035">
      <g
         transform="matrix(0.5314961,0,0,-0.5314961,-93.01181,393.30707)"
         style="font-style:normal;font-variant:normal;font-weight:normal;font-stretch:normal;letter-spacing:normal;word-spacing:normal;text-anchor:start;fill:none;fill-opacity:1;stroke:#000000;stroke-linecap:butt;stroke-linejoin:miter;stroke-miterlimit:10.43299961;stroke-dasharray:none;stroke-dashoffset:0;stroke-opacity:1"
         id="g4037"
         xml:space="preserve"><path
           d="M 1241.1,380.62 L 1241.1,380.64 L 1241.1,380.65 L 1241.1,380.67 L 1241.1,380.69 L 1241.1,380.7 L 1241.1,380.72 L 1241.1,380.74 L 1241.1,380.76 L 1241.1,380.78 L 1241.1,380.8 L 1241.1,380.82 L 1241.1,380.84 L 1241.1,380.86 L 1241.1,380.88 L 1241,380.9 L 1241,380.92 L 1241,380.94 L 1241,380.96 L 1241,380.98 L 1241,381 L 1240.9,381.02 L 1240.9,381.03 L 1240.9,381.05 L 1240.9,381.06 L 1240.8,381.07 L 1240.8,381.08 L 1240.8,381.08 L 1240.8,381.09 L 1240.8,381.09 L 1240.7,381.1 L 1240.7,381.1 L 1240.7,381.11 L 1240.7,381.11 L 1240.7,381.11 L 1240.7,381.11 L 1240.6,381.11 L 1240.6,381.12 L 1240.6,381.12 L 1240.6,381.12 C 1240.3,381.12 1240.3,381.07 1239.7,380.37 L 1237.3,377.53 C 1236,379.87 1233.4,381.12 1230.2,381.12 C 1223.8,381.12 1217.9,375.39 1217.9,369.36 C 1217.9,365.33 1220.5,363.04 1223.1,362.29 L 1228.4,360.89 C 1230.2,360.45 1233,359.7 1233,355.61 C 1233,351.13 1228.9,346.45 1224,346.45 C 1220.8,346.45 1215.3,347.54 1215.3,353.72 C 1215.3,354.92 1215.5,356.11 1215.6,356.41 C 1215.6,356.61 1215.7,356.66 1215.7,356.76 C 1215.7,357.26 1215.3,357.31 1215.1,357.31 C 1214.8,357.31 1214.7,357.26 1214.6,357.11 C 1214.4,356.91 1211.6,345.55 1211.6,345.4 C 1211.6,345.1 1211.8,344.9 1212.1,344.9 C 1212.4,344.9 1212.4,344.95 1213,345.65 L 1215.5,348.49 C 1217.6,345.6 1221,344.9 1223.9,344.9 C 1230.7,344.9 1236.6,351.53 1236.6,357.71 C 1236.6,361.14 1234.8,362.84 1234.1,363.54 C 1233,364.68 1232.2,364.88 1227.8,366.02 C 1226.7,366.32 1224.9,366.82 1224.4,366.92 C 1223.1,367.37 1221.4,368.81 1221.4,371.45 C 1221.4,375.49 1225.4,379.72 1230.1,379.72 C 1234.2,379.72 1237.3,377.58 1237.3,372 C 1237.3,370.41 1237.1,369.51 1237.1,369.21 C 1237.1,369.16 1237.1,368.71 1237.7,368.71 C 1238.2,368.71 1238.2,368.86 1238.4,369.71 L 1241.1,380.62 z "
           style="fill:#000000;stroke-width:0"
           id="path4039" /><path
           d="M 1254.7,363.06 L 1254.6,363.11 L 1254.6,363.16 L 1254.6,363.21 L 1254.6,363.25 L 1254.6,363.3 L 1254.5,363.34 L 1254.5,363.38 L 1254.5,363.42 L 1254.5,363.46 L 1254.5,363.49 L 1254.5,363.53 L 1254.4,363.56 L 1254.4,363.59 L 1254.4,363.62 L 1254.4,363.64 L 1254.3,363.67 L 1254.3,363.69 L 1254.3,363.72 L 1254.3,363.74 L 1254.2,363.76 L 1254.2,363.77 L 1254.2,363.79 L 1254.1,363.8 L 1254.1,363.82 L 1254,363.83 L 1254,363.84 L 1254,363.84 L 1253.9,363.85 L 1253.9,363.86 L 1253.8,363.86 L 1253.7,363.86 L 1253.7,363.86 C 1253,363.86 1252.9,363.62 1252.7,363.06 L 1244.7,342.66 C 1244.3,341.79 1243.7,340.25 1240.6,340.25 L 1240.6,339 C 1241.8,339.11 1243,339.14 1244.2,339.14 C 1245.6,339.14 1248.1,339 1248.3,339 L 1248.3,340.25 C 1246.8,340.25 1245.8,340.95 1245.8,341.93 C 1245.8,342.21 1245.9,342.28 1246,342.62 L 1247.7,346.91 L 1248.2,348.17 L 1252.6,359.5 L 1257.1,348.17 L 1248.2,348.17 L 1247.7,346.91 L 1257.6,346.91 L 1259.6,341.82 C 1259.7,341.65 1259.8,341.41 1259.8,341.23 C 1259.8,340.25 1257.9,340.25 1257,340.25 L 1257,339 C 1258.7,339.07 1260.9,339.14 1262.2,339.14 C 1263.8,339.14 1266.4,339.04 1266.8,339 L 1266.8,340.25 L 1266.1,340.25 C 1263.8,340.25 1263.5,340.61 1263.1,341.58 L 1254.7,363.06 z "
           style="fill:#000000;stroke-width:0"
           id="path4041" /></g>    </g>
    <g
       transform="translate(-175.60629,152.9575)"
       id="g4235">
      <g
         transform="matrix(0.5314961,0,0,-0.5314961,-93.01181,393.30707)"
         style="font-style:normal;font-variant:normal;font-weight:normal;font-stretch:normal;letter-spacing:normal;word-spacing:normal;text-anchor:start;fill:none;fill-opacity:1;stroke:#000000;stroke-linecap:butt;stroke-linejoin:miter;stroke-miterlimit:10.43299961;stroke-dasharray:none;stroke-dashoffset:0;stroke-opacity:1"
         id="g4237"
         xml:space="preserve"><path
           d="M 1242.1,380.62 L 1242.1,380.64 L 1242.1,380.65 L 1242.1,380.67 L 1242.1,380.69 L 1242.1,380.7 L 1242.1,380.72 L 1242.1,380.74 L 1242.1,380.76 L 1242.1,380.78 L 1242.1,380.8 L 1242.1,380.82 L 1242.1,380.84 L 1242.1,380.86 L 1242.1,380.88 L 1242,380.9 L 1242,380.92 L 1242,380.94 L 1242,380.96 L 1242,380.98 L 1242,381 L 1241.9,381.02 L 1241.9,381.03 L 1241.9,381.05 L 1241.9,381.06 L 1241.8,381.07 L 1241.8,381.08 L 1241.8,381.08 L 1241.8,381.09 L 1241.8,381.09 L 1241.7,381.1 L 1241.7,381.1 L 1241.7,381.11 L 1241.7,381.11 L 1241.7,381.11 L 1241.7,381.11 L 1241.6,381.11 L 1241.6,381.12 L 1241.6,381.12 L 1241.6,381.12 C 1241.3,381.12 1241.3,381.07 1240.7,380.37 L 1238.3,377.53 C 1237,379.87 1234.4,381.12 1231.2,381.12 C 1224.8,381.12 1218.9,375.39 1218.9,369.36 C 1218.9,365.33 1221.5,363.04 1224.1,362.29 L 1229.4,360.89 C 1231.2,360.45 1234,359.7 1234,355.61 C 1234,351.13 1229.9,346.45 1225,346.45 C 1221.8,346.45 1216.3,347.54 1216.3,353.72 C 1216.3,354.92 1216.5,356.11 1216.6,356.41 C 1216.6,356.61 1216.7,356.66 1216.7,356.76 C 1216.7,357.26 1216.3,357.31 1216.1,357.31 C 1215.8,357.31 1215.7,357.26 1215.6,357.11 C 1215.4,356.91 1212.6,345.55 1212.6,345.4 C 1212.6,345.1 1212.8,344.9 1213.1,344.9 C 1213.4,344.9 1213.4,344.95 1214,345.65 L 1216.5,348.49 C 1218.6,345.6 1222,344.9 1224.9,344.9 C 1231.7,344.9 1237.6,351.53 1237.6,357.71 C 1237.6,361.14 1235.8,362.84 1235.1,363.54 C 1234,364.68 1233.2,364.88 1228.8,366.02 C 1227.7,366.32 1225.9,366.82 1225.4,366.92 C 1224.1,367.37 1222.4,368.81 1222.4,371.45 C 1222.4,375.49 1226.4,379.72 1231.1,379.72 C 1235.2,379.72 1238.3,377.58 1238.3,372 C 1238.3,370.41 1238.1,369.51 1238.1,369.21 C 1238.1,369.16 1238.1,368.71 1238.7,368.71 C 1239.2,368.71 1239.2,368.86 1239.4,369.71 L 1242.1,380.62 z "
           style="fill:#000000;stroke-width:0"
           id="path4239" /><path
           d="M 1242.1,362.82 L 1242.1,361.56 L 1242.9,361.56 C 1245.6,361.56 1245.7,361.21 1245.7,359.99 L 1245.7,341.82 C 1245.7,340.64 1245.6,340.25 1242.9,340.25 L 1242.1,340.25 L 1242.1,339 L 1256.9,339 C 1261.8,339 1265.4,342.07 1265.4,345.38 C 1265.4,348.41 1262.3,351 1258.1,351.45 C 1261.5,352.07 1264.3,354.2 1264.3,356.89 C 1264.3,360.03 1260.7,362.82 1255.8,362.82 L 1255.6,361.56 C 1259,361.56 1260.8,359.09 1260.8,356.89 C 1260.8,354.41 1258.5,351.87 1254.5,351.87 L 1248.8,351.87 L 1248.8,350.89 L 1256.2,350.89 C 1259.9,350.89 1261.8,347.89 1261.8,345.45 C 1261.8,342.87 1259.5,340.25 1255.7,340.25 L 1250.4,340.25 C 1248.8,340.25 1248.8,340.54 1248.8,341.61 L 1248.8,350.89 L 1248.8,351.87 L 1248.8,360.2 C 1248.8,361.28 1248.8,361.56 1250.4,361.56 L 1255.6,361.56 L 1255.8,362.82 L 1242.1,362.82 z "
           style="fill:#000000;stroke-width:0"
           id="path4241" /></g>    </g>
  </g>
</svg>
